<svg xmlns="http://www.w3.org/2000/svg" width="50" height="50" viewBox="0 0 50 50" fill="none">
  <path d="M38.2812 0H11.7188C5.24666 0 0 5.24666 0 11.7188V38.2812C0 44.7533 5.24666 50 11.7188 50H38.2812C44.7533 50 50 44.7533 50 38.2812V11.7188C50 5.24666 44.7533 0 38.2812 0Z" fill="#F4F2ED"/>
  <mask id="mask0_624_12123" style="mask-type:luminance" maskUnits="userSpaceOnUse" x="11" y="5" width="27" height="40">
    <path d="M11.9141 5.46875H37.9609V44.5312H11.9141V5.46875Z" fill="white"/>
  </mask>
  <g mask="url(#mask0_624_12123)">
    <path d="M18.4285 44.5313C22.0223 44.5313 24.9389 41.6147 24.9389 38.0209V31.5104H18.4285C14.8348 31.5104 11.918 34.4272 11.918 38.0209C11.918 41.6147 14.8348 44.5313 18.4285 44.5313Z" fill="#0ACF83"/>
    <path d="M11.918 25C11.918 21.4062 14.8348 18.4896 18.4285 18.4896H24.9389V31.5103H18.4285C14.8348 31.5103 11.918 28.5937 11.918 25Z" fill="#A259FF"/>
    <path d="M11.918 11.9791C11.918 8.38535 14.8348 5.46875 18.4285 5.46875H24.9389V18.4896H18.4285C14.8348 18.4896 11.918 15.5729 11.918 11.9791Z" fill="#F24E1E"/>
    <path d="M24.9395 5.46875H31.4498C35.0436 5.46875 37.9604 8.38535 37.9604 11.9791C37.9604 15.5729 35.0436 18.4896 31.4498 18.4896H24.9395V5.46875Z" fill="#FF7262"/>
    <path d="M37.9604 25C37.9604 28.5937 35.0436 31.5103 31.4498 31.5103C27.8561 31.5103 24.9395 28.5937 24.9395 25C24.9395 21.4062 27.8561 18.4896 31.4498 18.4896C35.0436 18.4896 37.9604 21.4062 37.9604 25Z" fill="#1ABCFE"/>
  </g>
</svg>