<svg xmlns="http://www.w3.org/2000/svg" width="50" height="50" viewBox="0 0 50 50" fill="none">
    <path d="M44.6429 0H5.35714C2.39955 0 0 2.39955 0 5.35714V44.6429C0 47.6004 2.39955 50 5.35714 50H44.6429C47.6004 50 50 47.6004 50 44.6429V5.35714C50 2.39955 47.6004 0 44.6429 0ZM30.9487 42.8237C30.0112 42.9911 29.6652 42.4107 29.6652 41.9308C29.6652 41.3281 29.6875 38.2478 29.6875 35.7589C29.6875 34.0179 29.1071 32.9129 28.4263 32.3326C32.5558 31.875 36.9085 31.3058 36.9085 24.1741C36.9085 22.1429 36.183 21.1272 35 19.8214C35.1897 19.3415 35.8259 17.3661 34.8103 14.7991C33.2589 14.3192 29.7098 16.7969 29.7098 16.7969C28.2366 16.3839 26.6406 16.1719 25.067 16.1719C23.4933 16.1719 21.8973 16.3839 20.4241 16.7969C20.4241 16.7969 16.875 14.3192 15.3237 14.7991C14.308 17.3549 14.933 19.3304 15.1339 19.8214C13.9509 21.1272 13.3929 22.1429 13.3929 24.1741C13.3929 31.2723 17.5558 31.875 21.6853 32.3326C21.1496 32.8125 20.6696 33.6384 20.5022 34.8214C19.442 35.3013 16.7299 36.1272 15.1116 33.2701C14.096 31.5067 12.2656 31.3616 12.2656 31.3616C10.4576 31.3393 12.1429 32.5 12.1429 32.5C13.3482 33.058 14.1964 35.2009 14.1964 35.2009C15.279 38.5156 20.4576 37.3996 20.4576 37.3996C20.4576 38.9509 20.4799 41.4732 20.4799 41.9308C20.4799 42.4107 20.1451 42.9911 19.1964 42.8237C11.8304 40.3571 6.67411 33.3482 6.67411 25.1562C6.67411 14.9107 14.5089 7.1317 24.7545 7.1317C35 7.1317 43.3036 14.9107 43.3036 25.1562C43.3147 33.3482 38.3147 40.3683 30.9487 42.8237ZM20 36.0045C19.7879 36.0491 19.5871 35.9598 19.5647 35.8147C19.5424 35.6473 19.6875 35.5022 19.8996 35.4576C20.1116 35.4353 20.3125 35.5246 20.3348 35.6696C20.3683 35.8147 20.2232 35.9598 20 36.0045ZM18.9397 35.904C18.9397 36.0491 18.7723 36.1719 18.5491 36.1719C18.3036 36.1942 18.1362 36.0714 18.1362 35.904C18.1362 35.7589 18.3036 35.6362 18.5268 35.6362C18.7388 35.6138 18.9397 35.7366 18.9397 35.904ZM17.4107 35.7813C17.3661 35.9263 17.1429 35.9933 16.9531 35.9263C16.7411 35.8817 16.596 35.7143 16.6406 35.5692C16.6853 35.4241 16.9085 35.3571 17.0982 35.4018C17.3214 35.4688 17.4665 35.6362 17.4107 35.7813ZM16.0379 35.1786C15.9375 35.3013 15.7254 35.279 15.558 35.1116C15.3906 34.9665 15.346 34.7545 15.4576 34.654C15.558 34.5312 15.7701 34.5536 15.9375 34.721C16.0826 34.8661 16.1384 35.0893 16.0379 35.1786ZM15.0223 34.1629C14.9219 34.2299 14.7321 34.1629 14.6094 33.9955C14.4866 33.8281 14.4866 33.6384 14.6094 33.5603C14.7321 33.4598 14.9219 33.5379 15.0223 33.7054C15.1451 33.8728 15.1451 34.0737 15.0223 34.1629ZM14.2969 33.0804C14.1964 33.1808 14.029 33.125 13.9062 33.0134C13.7835 32.8683 13.7612 32.7009 13.8616 32.6228C13.9621 32.5223 14.1295 32.5781 14.2522 32.6897C14.375 32.8348 14.3973 33.0022 14.2969 33.0804ZM13.5491 32.2545C13.5045 32.3549 13.3594 32.3772 13.2366 32.2991C13.0915 32.2321 13.0246 32.1094 13.0692 32.0089C13.1138 31.942 13.2366 31.9085 13.3817 31.9643C13.5268 32.0424 13.5938 32.1652 13.5491 32.2545Z" fill="black"/>
  </svg>