<svg xmlns="http://www.w3.org/2000/svg" width="50" height="50" viewBox="0 0 50 50" fill="none">
  <path d="M46.3115 0.000189343H3.68852C2.72144 -0.00965272 1.78995 0.364549 1.09844 1.04069C0.40693 1.71682 0.0118899 2.63966 0 3.60672V46.4015C0.0140401 47.3671 0.410025 48.2878 1.1013 48.9622C1.79257 49.6366 2.72284 50.0097 3.68852 49.9998H46.3115C47.2786 50.0075 48.2095 49.632 48.9006 48.9555C49.5918 48.2789 49.987 47.3563 50 46.3892V3.59442C49.9828 2.63021 49.5856 1.71176 48.8949 1.03873C48.2042 0.365697 47.2758 -0.00752439 46.3115 0.000189343Z" fill="#0076B2"/>
  <path d="M7.40071 18.7418H14.8228V42.6228H7.40071V18.7418ZM11.1138 6.85669C11.9651 6.85669 12.7973 7.10917 13.505 7.5822C14.2128 8.05523 14.7643 8.72755 15.0899 9.5141C15.4155 10.3007 15.5005 11.1661 15.3341 12.001C15.1677 12.8358 14.7575 13.6026 14.1553 14.2042C13.553 14.8059 12.7859 15.2154 11.9508 15.381C11.1158 15.5466 10.2504 15.4608 9.46419 15.1344C8.67794 14.8081 8.00615 14.2559 7.53379 13.5477C7.06143 12.8395 6.80974 12.0071 6.81055 11.1558C6.81164 10.0153 7.26549 8.92176 8.0724 8.11563C8.8793 7.3095 9.97324 6.85669 11.1138 6.85669ZM19.4786 18.7418H26.5933V22.0205H26.6917C27.6835 20.1435 30.1015 18.164 33.7122 18.164C41.2286 18.1476 42.622 23.0943 42.622 29.5082V42.6228H35.1999V31.004C35.1999 28.2377 35.1507 24.6762 31.3433 24.6762C27.536 24.6762 26.8884 27.6926 26.8884 30.8237V42.6228H19.4786V18.7418Z" fill="white"/>
</svg>