<svg xmlns="http://www.w3.org/2000/svg" width="50" height="50" viewBox="0 0 50 50" fill="none">
    <path d="M7.14286 0C3.20313 0 0 3.20313 0 7.14286V42.8571C0 46.7969 3.20313 50 7.14286 50H42.8571C46.7969 50 50 46.7969 50 42.8571V7.14286C50 3.20313 46.7969 0 42.8571 0H7.14286ZM40.3013 9.375L28.7165 22.6116L42.3437 40.625H31.6741L23.3259 29.6987L13.7612 40.625H8.45982L20.8482 26.4621L7.77902 9.375H18.7165L26.2723 19.3638L35 9.375H40.3013ZM36.0826 37.4554L17.1205 12.3772H13.9621L33.1362 37.4554H36.0714H36.0826Z" fill="white"/>
  </svg>