<svg xmlns="http://www.w3.org/2000/svg" width="40" height="40" viewBox="0 0 40 40" fill="none">
    <circle cx="20" cy="20" r="20" fill="url(#paint0_linear_649_12197)"/>
    <path d="M14.3152 14.199C14.0652 13.561 14.0752 12.832 14.1862 12.165C14.9504 12.394 15.6681 12.7562 16.3062 13.235C16.5862 13.449 16.9532 13.518 17.2952 13.415C18.1728 13.1524 19.0842 13.0204 20.0002 13.023C20.9612 13.023 21.8742 13.163 22.7032 13.414C23.0452 13.518 23.4122 13.448 23.6912 13.234C24.329 12.7553 25.0464 12.3931 25.8102 12.164C25.9212 12.831 25.9302 13.56 25.6822 14.197C25.5322 14.581 25.6072 15.023 25.8902 15.337C26.6142 16.14 27.0002 17.063 27.0002 18.023C27.0002 20.137 25.0302 22.21 21.8662 22.841C21.0742 22.999 20.7652 23.996 21.3712 24.567C21.7602 24.933 22.0002 25.449 22.0002 26.023V29.023C22.0002 29.2882 22.1056 29.5426 22.2931 29.7301C22.4807 29.9176 22.735 30.023 23.0002 30.023C23.2654 30.023 23.5198 29.9176 23.7073 29.7301C23.8949 29.5426 24.0002 29.2882 24.0002 29.023V26.023C24.0002 25.453 23.8802 24.911 23.6662 24.42C26.6832 23.373 29.0002 21.016 29.0002 18.023C29.0002 16.676 28.5162 15.438 27.7132 14.401C27.9232 13.581 27.9042 12.755 27.8242 12.121C27.7532 11.553 27.6542 10.809 27.2542 10.365C26.6592 9.706 25.6742 10.094 24.9742 10.333C24.2233 10.5871 23.5089 10.9384 22.8492 11.378C21.9183 11.1404 20.961 11.0211 20.0002 11.023C19.0062 11.023 18.0472 11.148 17.1492 11.379C16.4896 10.9394 15.7751 10.5881 15.0242 10.334C14.3242 10.094 13.3382 9.706 12.7432 10.365C12.3352 10.817 12.2502 11.502 12.1772 12.084L12.1722 12.122C12.0922 12.757 12.0742 13.584 12.2842 14.405C11.4842 15.441 11.0002 16.677 11.0002 18.023C11.0002 21.015 13.3172 23.373 16.3342 24.42C16.1159 24.9193 16.0022 25.458 16.0002 26.003L15.8322 26.037C15.1152 26.136 14.6562 26.047 14.3442 25.915C13.5842 25.593 13.1922 24.782 12.7142 24.162C12.4162 23.777 11.9822 23.296 11.3162 23.074C11.1916 23.0325 11.06 23.016 10.929 23.0253C10.798 23.0347 10.6701 23.0697 10.5526 23.1285C10.3154 23.2472 10.135 23.4553 10.0512 23.707C9.96742 23.9587 9.98703 24.2334 10.1057 24.4706C10.2244 24.7078 10.4325 24.8882 10.6842 24.972C11.2422 25.158 11.6282 26.114 11.9822 26.538C12.3552 26.986 12.8512 27.454 13.5622 27.756C14.2442 28.046 15.0452 28.149 16.0002 28.032V29.023C16.0002 29.2882 16.1056 29.5426 16.2931 29.7301C16.4807 29.9176 16.735 30.023 17.0002 30.023C17.2654 30.023 17.5198 29.9176 17.7073 29.7301C17.8949 29.5426 18.0002 29.2882 18.0002 29.023V26.023C18.0002 25.449 18.2402 24.933 18.6292 24.567C19.2362 23.995 18.9262 22.999 18.1342 22.841C14.9692 22.21 13.0002 20.137 13.0002 18.023C13.0002 17.065 13.3852 16.142 14.1082 15.339C14.3912 15.025 14.4652 14.583 14.3152 14.199Z" fill="white"/>
    <defs>
      <linearGradient id="paint0_linear_649_12197" x1="-2.02048e-07" y1="19.9381" x2="40" y2="19.9381" gradientUnits="userSpaceOnUse">
        <stop offset="0.140625" stop-color="#B16CEA"/>
        <stop offset="0.447917" stop-color="#FF5E69"/>
        <stop offset="0.71875" stop-color="#FF8A56"/>
        <stop offset="1" stop-color="#FFA84B"/>
      </linearGradient>
    </defs>
  </svg>