<svg xmlns="http://www.w3.org/2000/svg" width="40" height="40" viewBox="0 0 40 40" fill="none">
    <circle cx="20" cy="20" r="20" fill="url(#paint0_linear_649_12194)"/>
    <path d="M16.1109 14.5562C16.1107 14.9688 15.9467 15.3643 15.6548 15.6559C15.3629 15.9475 14.9672 16.1111 14.5547 16.1109C14.1422 16.1107 13.7466 15.9467 13.455 15.6548C13.1635 15.3629 12.9998 14.9672 13 14.5547C13.0002 14.1422 13.1643 13.7466 13.4561 13.455C13.748 13.1635 14.1437 12.9998 14.5562 13C14.9688 13.0002 15.3643 13.1643 15.6559 13.4561C15.9475 13.748 16.1111 14.1437 16.1109 14.5562ZM16.1576 17.2628H13.0467V27H16.1576V17.2628ZM21.0729 17.2628H17.9775V27H21.0418V21.8903C21.0418 19.0438 24.7516 18.7793 24.7516 21.8903V27H27.8236V20.8326C27.8236 16.0339 22.3328 16.2128 21.0418 18.5694L21.0729 17.2628Z" fill="white"/>
    <defs>
      <linearGradient id="paint0_linear_649_12194" x1="-2.02048e-07" y1="19.9381" x2="40" y2="19.9381" gradientUnits="userSpaceOnUse">
        <stop offset="0.140625" stop-color="#B16CEA"/>
        <stop offset="0.447917" stop-color="#FF5E69"/>
        <stop offset="0.71875" stop-color="#FF8A56"/>
        <stop offset="1" stop-color="#FFA84B"/>
      </linearGradient>
    </defs>
  </svg>