<svg xmlns="http://www.w3.org/2000/svg" width="256" height="256" viewBox="0 0 256 256" fill="none">
  <mask id="mask0_869_45" style="mask-type:luminance" maskUnits="userSpaceOnUse" x="61" y="28" width="134" height="200">
    <path d="M61 28H194.36V228H61V28Z" fill="white"/>
  </mask>
  <g mask="url(#mask0_869_45)">
    <path d="M94.3477 228C112.748 228 127.681 213.067 127.681 194.667V161.333H94.3477C75.9477 161.333 61.0137 176.267 61.0137 194.667C61.0137 213.067 75.9477 228 94.3477 228Z" fill="#0ACF83"/>
    <path d="M61.0137 128C61.0137 109.6 75.9477 94.667 94.3477 94.667H127.681V161.333H94.3477C75.9477 161.333 61.0137 146.4 61.0137 128Z" fill="#A259FF"/>
    <path d="M61.0137 61.333C61.0137 42.933 75.9477 28 94.3477 28H127.681V94.667H94.3477C75.9477 94.667 61.0137 79.733 61.0137 61.333Z" fill="#F24E1E"/>
    <path d="M127.682 28H161.015C179.415 28 194.349 42.933 194.349 61.333C194.349 79.733 179.415 94.667 161.015 94.667H127.682V28Z" fill="#FF7262"/>
    <path d="M194.349 128C194.349 146.4 179.415 161.333 161.015 161.333C142.615 161.333 127.682 146.4 127.682 128C127.682 109.6 142.615 94.667 161.015 94.667C179.415 94.667 194.349 109.6 194.349 128Z" fill="#1ABCFE"/>
  </g>
</svg>