<svg xmlns="http://www.w3.org/2000/svg" width="256" height="256" viewBox="0 0 256 256" fill="none">
  <path d="M144.934 38.062L200.709 38L107.134 131.526L82.747 155.777L55 127.996L144.934 38.062ZM144.415 121.569C145.139 120.613 146.471 121.085 147.482 120.962L200.661 120.975L152.194 169.395L124.303 141.675L144.415 121.569Z" fill="#44D1FD"/>
  <path d="M96.502 169.442L124.304 141.675L152.195 169.395L152.311 169.518L124.311 197.258L96.502 169.442Z" fill="#1FBCFD"/>
  <path d="M124.311 197.258L152.311 169.518L200.682 217.937C182.462 217.978 164.248 217.923 146.035 217.964C144.997 218.196 144.355 217.247 143.692 216.66L124.311 197.258Z" fill="#08589C"/>
</svg>