<svg xmlns="http://www.w3.org/2000/svg" width="256" height="255" viewBox="0 0 256 255" fill="none">
    <g clip-path="url(#clip0_869_3)">
      <path d="M126.916 0.0717773C62.0835 0.0717773 66.1315 28.1868 66.1315 28.1868L66.2035 57.3148H128.072V66.0598H41.6305C41.6305 66.0598 0.144531 61.3548 0.144531 126.77C0.144531 192.187 36.3545 189.867 36.3545 189.867H57.9645V159.511C57.9645 159.511 56.7995 123.301 93.5965 123.301H154.959C154.959 123.301 189.434 123.858 189.434 89.9818V33.9698C189.434 33.9698 194.67 0.0717773 126.916 0.0717773ZM92.8015 19.6598C94.2635 19.6585 95.7114 19.9454 97.0624 20.5043C98.4133 21.0632 99.6408 21.883 100.675 22.9167C101.708 23.9505 102.528 25.178 103.087 26.529C103.646 27.8799 103.933 29.3278 103.932 30.7898C103.933 32.2518 103.646 33.6997 103.087 35.0506C102.528 36.4015 101.708 37.629 100.675 38.6628C99.6408 39.6966 98.4133 40.5164 97.0624 41.0752C95.7114 41.6341 94.2635 41.9211 92.8015 41.9198C91.3396 41.9211 89.8917 41.6341 88.5407 41.0752C87.1898 40.5164 85.9623 39.6966 84.9285 38.6628C83.8947 37.629 83.0749 36.4015 82.5161 35.0506C81.9572 33.6997 81.6702 32.2518 81.6715 30.7898C81.6702 29.3278 81.9572 27.8799 82.5161 26.529C83.0749 25.178 83.8947 23.9505 84.9285 22.9167C85.9623 21.883 87.1898 21.0632 88.5407 20.5043C89.8917 19.9454 91.3396 19.6585 92.8015 19.6598Z" fill="url(#paint0_linear_869_3)"/>
      <path d="M128.757 254.126C193.589 254.126 189.541 226.011 189.541 226.011L189.469 196.884H127.6V188.139H214.041C214.041 188.139 255.527 192.844 255.527 127.427C255.527 62.011 219.317 64.331 219.317 64.331H197.707V94.686C197.707 94.686 198.872 130.896 162.075 130.896H100.713C100.713 130.896 66.2383 130.339 66.2383 164.216V220.229C66.2383 220.229 61.0033 254.126 128.756 254.126M162.87 234.54C161.408 234.541 159.96 234.254 158.609 233.695C157.259 233.137 156.031 232.317 154.997 231.283C153.964 230.249 153.144 229.022 152.585 227.671C152.026 226.32 151.739 224.872 151.74 223.41C151.739 221.948 152.026 220.5 152.585 219.149C153.143 217.798 153.963 216.57 154.997 215.536C156.031 214.502 157.258 213.683 158.609 213.124C159.96 212.565 161.408 212.278 162.87 212.279C164.332 212.278 165.78 212.565 167.131 213.124C168.482 213.682 169.71 214.502 170.743 215.536C171.777 216.57 172.597 217.797 173.156 219.148C173.715 220.499 174.002 221.947 174 223.409C174.002 224.871 173.715 226.319 173.156 227.67C172.597 229.021 171.777 230.248 170.743 231.282C169.71 232.316 168.482 233.136 167.131 233.694C165.78 234.253 164.332 234.541 162.87 234.54Z" fill="url(#paint1_linear_869_3)"/>
    </g>
    <defs>
      <linearGradient id="paint0_linear_869_3" x1="2454.36" y1="2285.14" x2="15110.3" y2="14814.8" gradientUnits="userSpaceOnUse">
        <stop stop-color="#387EB8"/>
        <stop offset="1" stop-color="#366994"/>
      </linearGradient>
      <linearGradient id="paint1_linear_869_3" x1="3688.66" y1="3970.32" x2="17279.7" y2="16818.4" gradientUnits="userSpaceOnUse">
        <stop stop-color="#FFE052"/>
        <stop offset="1" stop-color="#FFC331"/>
      </linearGradient>
      <clipPath id="clip0_869_3">
        <rect width="256" height="255" fill="white"/>
      </clipPath>
    </defs>
  </svg>