<svg xmlns="http://www.w3.org/2000/svg" width="24" height="25" viewBox="0 0 24 25" fill="none">
    <path d="M12 0.242188C10.4241 0.242187 8.86371 0.560283 7.4078 1.17831C5.95189 1.79634 4.62902 2.7022 3.51472 3.84417C1.26428 6.15047 0 9.2785 0 12.5401C0 17.9758 3.444 22.5875 8.208 24.2231C8.808 24.3215 9 23.9403 9 23.6082V21.5299C5.676 22.2678 4.968 19.882 4.968 19.882C4.416 18.4554 3.636 18.0742 3.636 18.0742C2.544 17.3117 3.72 17.3363 3.72 17.3363C4.92 17.4224 5.556 18.603 5.556 18.603C6.6 20.4723 8.364 19.9189 9.048 19.6237C9.156 18.8244 9.468 18.2832 9.804 17.9758C7.14 17.6683 4.344 16.6107 4.344 11.9252C4.344 10.5601 4.8 9.46563 5.58 8.59248C5.46 8.28503 5.04 7.00605 5.7 5.34583C5.7 5.34583 6.708 5.01378 9 6.60021C9.948 6.32966 10.98 6.19438 12 6.19438C13.02 6.19438 14.052 6.32966 15 6.60021C17.292 5.01378 18.3 5.34583 18.3 5.34583C18.96 7.00605 18.54 8.28503 18.42 8.59248C19.2 9.46563 19.656 10.5601 19.656 11.9252C19.656 16.623 16.848 17.656 14.172 17.9635C14.604 18.3447 15 19.0949 15 20.2386V23.6082C15 23.9403 15.192 24.3338 15.804 24.2231C20.568 22.5752 24 17.9758 24 12.5401C24 10.9251 23.6896 9.32595 23.0866 7.8339C22.4835 6.34185 21.5996 4.98613 20.4853 3.84417C19.371 2.7022 18.0481 1.79634 16.5922 1.17831C15.1363 0.560283 13.5759 0.242188 12 0.242188Z" fill="white"/>
  </svg>