<svg xmlns="http://www.w3.org/2000/svg" width="24" height="18" viewBox="0 0 24 18" fill="none">
    <path fill-rule="evenodd" clip-rule="evenodd" d="M3.06977 0C2.25561 0 1.47481 0.323421 0.899114 0.899114C0.323421 1.47481 0 2.25561 0 3.06977V14.2326C0 15.0467 0.323421 15.8275 0.899114 16.4032C1.47481 16.9789 2.25561 17.3023 3.06977 17.3023H20.9302C21.7444 17.3023 22.5252 16.9789 23.1009 16.4032C23.6766 15.8275 24 15.0467 24 14.2326V3.06977C24 2.25561 23.6766 1.47481 23.1009 0.899114C22.5252 0.323421 21.7444 0 20.9302 0H3.06977ZM6.8986 4.61693C6.71663 4.49818 6.49562 4.45484 6.28227 4.49605C6.06892 4.53727 5.87996 4.65982 5.75531 4.83781C5.63067 5.01579 5.5801 5.23526 5.6143 5.44985C5.64851 5.66443 5.7648 5.85731 5.93861 5.98772L11.52 9.8947C11.6607 9.99316 11.8283 10.046 12 10.046C12.1717 10.046 12.3393 9.99316 12.48 9.8947L18.0614 5.98772C18.1554 5.92638 18.2361 5.84675 18.2987 5.75358C18.3613 5.66042 18.4046 5.55561 18.4259 5.44539C18.4472 5.33518 18.4461 5.22181 18.4227 5.11202C18.3993 5.00224 18.354 4.89828 18.2896 4.80633C18.2252 4.71438 18.143 4.63632 18.0478 4.5768C17.9527 4.51727 17.8465 4.47749 17.7357 4.45982C17.6248 4.44215 17.5115 4.44695 17.4026 4.47394C17.2936 4.50093 17.1912 4.54956 17.1014 4.61693L12 8.18791L6.8986 4.61693Z" fill="url(#paint0_linear_682_12244)"/>
    <defs>
      <linearGradient id="paint0_linear_682_12244" x1="-1.21229e-07" y1="8.62438" x2="24" y2="8.62438" gradientUnits="userSpaceOnUse">
        <stop offset="0.140625" stop-color="#B16CEA"/>
        <stop offset="0.447917" stop-color="#FF5E69"/>
        <stop offset="0.71875" stop-color="#FF8A56"/>
        <stop offset="1" stop-color="#FFA84B"/>
      </linearGradient>
    </defs>
  </svg>