<svg xmlns="http://www.w3.org/2000/svg" width="24" height="24" viewBox="0 0 24 24" fill="none">
    <path d="M16.001 17.0498L18.0677 14.9831C18.346 14.7082 18.6982 14.5201 19.0814 14.4414C19.4646 14.3628 19.8625 14.3972 20.2265 14.5403L22.7453 15.5459C23.1132 15.6953 23.4287 15.9502 23.652 16.2786C23.8753 16.6069 23.9964 16.994 24 17.3911V22.0042C23.9979 22.2743 23.9411 22.5412 23.8331 22.7888C23.7251 23.0364 23.5681 23.2595 23.3715 23.4449C23.175 23.6302 22.943 23.7738 22.6895 23.8671C22.436 23.9604 22.1662 24.0015 21.8965 23.9877C4.24704 22.8899 0.685788 7.94366 0.0122868 2.22351C-0.0189776 1.94261 0.0095878 1.65828 0.0961037 1.38921C0.18262 1.12015 0.325125 0.872445 0.514245 0.662409C0.703366 0.452372 0.934815 0.284758 1.19337 0.170594C1.45192 0.0564299 1.73171 -0.00169682 2.01434 3.77059e-05H6.47052C6.86817 0.00121475 7.25637 0.12133 7.5852 0.344934C7.91403 0.568538 8.16845 0.885406 8.31573 1.25478L9.32136 3.77349C9.46922 4.13614 9.50694 4.53431 9.42982 4.91827C9.3527 5.30223 9.16415 5.65495 8.88774 5.93238L6.82111 7.99902C6.82111 7.99902 8.01127 16.0534 16.001 17.0498Z" fill="url(#paint0_linear_682_12246)"/>
    <defs>
      <linearGradient id="paint0_linear_682_12246" x1="-1.21229e-07" y1="11.958" x2="24" y2="11.958" gradientUnits="userSpaceOnUse">
        <stop offset="0.140625" stop-color="#B16CEA"/>
        <stop offset="0.447917" stop-color="#FF5E69"/>
        <stop offset="0.71875" stop-color="#FF8A56"/>
        <stop offset="1" stop-color="#FFA84B"/>
      </linearGradient>
    </defs>
  </svg>