<svg xmlns="http://www.w3.org/2000/svg" width="21" height="22" viewBox="0 0 21 22" fill="none">
    <path d="M10.5005 7.71875C8.69238 7.71875 7.21924 9.1919 7.21924 11C7.21924 12.8081 8.69238 14.2813 10.5005 14.2813C12.3086 14.2813 13.7817 12.8081 13.7817 11C13.7817 9.1919 12.3086 7.71875 10.5005 7.71875ZM18.9224 10.4702L15.6855 8.85352L16.8306 5.42188C16.9844 4.95703 16.5435 4.51611 16.082 4.67334L12.6504 5.81836L11.0303 2.57813C10.8115 2.14062 10.1895 2.14062 9.9707 2.57813L8.354 5.81494L4.91894 4.66992C4.4541 4.51611 4.01318 4.95703 4.17041 5.41846L5.31543 8.8501L2.07861 10.4702C1.64111 10.689 1.64111 11.311 2.07861 11.5298L5.31543 13.1465L4.17041 16.5815C4.0166 17.0464 4.45752 17.4873 4.91894 17.3301L8.35059 16.1851L9.96728 19.4219C10.186 19.8594 10.8081 19.8594 11.0269 19.4219L12.6436 16.1851L16.0752 17.3301C16.54 17.4839 16.981 17.043 16.8237 16.5815L15.6787 13.1499L18.9155 11.5332C19.3599 11.311 19.3599 10.689 18.9224 10.4702V10.4702ZM13.5937 14.0933C11.8882 15.7988 9.11279 15.7988 7.40723 14.0933C5.70166 12.3877 5.70166 9.61231 7.40723 7.90674C9.11279 6.20117 11.8882 6.20117 13.5937 7.90674C15.2993 9.61231 15.2993 12.3877 13.5937 14.0933Z" fill="#F9FAFB"/>
  </svg>