<svg width="1440" height="179" viewBox="0 0 1440 179" fill="none" xmlns="http://www.w3.org/2000/svg">
<g clip-path="url(#clip0_585_120)">
<rect y="25" width="1440" height="123" fill="url(#paint0_linear_585_120)"/>
<rect x="-93.4707" y="81.8096" width="1557" height="97" transform="rotate(-3 -93.4707 81.8096)" fill="#F0F2F5"/>
<path d="M-85.4415 138.175C-86.3576 138.223 -87.1177 137.985 -87.722 137.462C-88.3262 136.938 -88.6518 136.229 -88.6987 135.334L-89.7136 115.968L-79.0402 115.409C-77.3359 115.32 -75.8278 115.561 -74.5161 116.133C-73.1831 116.704 -72.1343 117.557 -71.3699 118.692C-70.5841 119.826 -70.1511 121.16 -70.0707 122.694L-69.7424 128.957C-69.5984 131.705 -70.2027 133.83 -71.5552 135.333C-72.9089 136.813 -74.9705 137.626 -77.7401 137.772L-85.4415 138.175ZM-78.0722 133.88C-76.7087 133.808 -75.6961 133.36 -75.0344 132.535C-74.3727 131.71 -74.082 130.53 -74.1624 128.996L-74.4706 123.116C-74.5342 121.902 -74.9791 120.953 -75.8054 120.27C-76.6327 119.566 -77.6855 119.247 -78.9637 119.314L-85.0993 119.636L-84.3356 134.208L-78.0722 133.88ZM-64.3973 119.576C-65.2281 119.62 -65.9115 119.421 -66.4474 118.979C-66.963 118.515 -67.2415 117.888 -67.2828 117.1C-67.3242 116.312 -67.1121 115.67 -66.6467 115.176C-66.161 114.659 -65.5028 114.379 -64.6719 114.336C-63.8411 114.292 -63.1678 114.502 -62.6521 114.967C-62.1163 115.409 -61.8277 116.024 -61.7864 116.812C-61.7451 117.6 -61.9672 118.253 -62.4529 118.769C-62.9183 119.264 -63.5664 119.533 -64.3973 119.576ZM-66.4916 121.192L-62.1456 120.964L-61.3099 136.911L-65.6559 137.138L-66.4916 121.192ZM-51.3554 136.645C-53.294 136.747 -54.876 136.317 -56.1013 135.356C-57.3267 134.395 -57.9829 133.083 -58.0699 131.421L-53.7878 131.197C-53.7577 131.772 -53.5414 132.231 -53.1389 132.573C-52.7163 132.893 -52.1854 133.036 -51.5463 133.002L-48.6702 132.851C-47.392 132.784 -46.7713 132.399 -46.8081 131.696L-46.8366 131.153C-46.8478 130.94 -46.9643 130.754 -47.1863 130.595C-47.4094 130.414 -47.7037 130.301 -48.0692 130.256L-53.6479 129.587C-54.9586 129.443 -56.0158 129.039 -56.8196 128.376C-57.6032 127.691 -58.0202 126.869 -58.0704 125.91L-58.1257 124.855C-58.1971 123.492 -57.699 122.398 -56.6314 121.573C-55.5425 120.747 -53.9967 120.281 -51.9942 120.176L-49.5016 120.045C-47.712 119.952 -46.2489 120.356 -45.1121 121.257C-43.9552 122.137 -43.336 123.354 -43.2545 124.909L-47.5366 125.134C-47.5612 124.665 -47.7405 124.3 -48.0746 124.04C-48.3873 123.779 -48.7994 123.662 -49.3107 123.688L-51.7393 123.816C-53.1241 123.888 -53.7997 124.244 -53.7662 124.883L-53.7394 125.395C-53.7272 125.629 -53.6313 125.827 -53.452 125.988C-53.2524 126.127 -52.9805 126.22 -52.6363 126.266L-46.765 127.016C-45.5395 127.165 -44.5355 127.572 -43.753 128.236C-42.9717 128.878 -42.5581 129.636 -42.5123 130.51L-42.452 131.66C-42.3795 133.045 -42.8972 134.172 -44.0052 135.042C-45.0919 135.911 -46.5832 136.395 -48.4793 136.494L-51.3554 136.645ZM-33.3056 135.699C-34.6478 135.77 -35.8548 135.566 -36.9266 135.088C-37.9771 134.609 -38.8151 133.905 -39.4405 132.977C-40.0447 132.047 -40.3797 130.954 -40.4456 129.697L-40.6415 125.958C-40.7074 124.701 -40.4885 123.579 -39.9848 122.591C-39.4599 121.602 -38.7 120.814 -37.7053 120.228C-36.7107 119.642 -35.5422 119.314 -34.2001 119.243L-31.6755 119.111C-30.3973 119.044 -29.2548 119.241 -28.248 119.701C-27.2412 120.161 -26.447 120.845 -25.8652 121.755C-25.2846 122.643 -24.9625 123.694 -24.8988 124.908L-29.2129 125.135C-29.2509 124.41 -29.4834 123.846 -29.9105 123.441C-30.3175 123.013 -30.8405 122.817 -31.4796 122.85L-33.9402 122.979C-34.6859 123.018 -35.2785 123.327 -35.7182 123.905C-36.1376 124.461 -36.3245 125.176 -36.2787 126.05L-36.1163 129.149C-36.0705 130.023 -35.7987 130.724 -35.301 131.254C-34.8044 131.762 -34.1833 131.996 -33.4377 131.957L-30.977 131.828C-30.2953 131.792 -29.7649 131.519 -29.3858 131.008C-28.9854 130.495 -28.8064 129.834 -28.8488 129.025L-24.5347 128.799C-24.4331 130.737 -24.9588 132.324 -26.1117 133.56C-27.2434 134.794 -28.7998 135.463 -30.7811 135.567L-33.3056 135.699ZM-15.4239 134.762C-16.7661 134.832 -17.9725 134.639 -19.0432 134.183C-20.0937 133.704 -20.9317 133 -21.5571 132.071C-22.1613 131.142 -22.4963 130.048 -22.5622 128.791L-22.7581 125.053C-22.824 123.796 -22.5944 122.673 -22.0695 121.684C-21.5456 120.674 -20.7864 119.876 -19.7917 119.289C-18.7757 118.702 -17.5966 118.373 -16.2545 118.303L-13.3784 118.152C-12.0362 118.082 -10.8399 118.286 -9.7894 118.765C-8.71759 119.243 -7.8684 119.957 -7.24183 120.907C-6.61637 121.835 -6.27071 122.928 -6.20484 124.185L-6.00889 127.924C-5.94302 129.181 -6.17257 130.304 -6.69753 131.293C-7.2225 132.281 -7.99298 133.07 -9.00897 133.657C-10.0048 134.222 -11.1844 134.54 -12.5479 134.611L-15.4239 134.762ZM-12.8077 130.876C-12.0195 130.835 -11.405 130.535 -10.9642 129.978C-10.5245 129.4 -10.3276 128.674 -10.3734 127.8L-10.5358 124.7C-10.5816 123.827 -10.8528 123.136 -11.3494 122.628C-11.8471 122.099 -12.4794 121.854 -13.2464 121.894L-15.9946 122.039C-16.7615 122.079 -17.3649 122.388 -17.8045 122.967C-18.2453 123.524 -18.4428 124.239 -18.397 125.112L-18.2346 128.212C-18.1888 129.086 -17.917 129.787 -17.4193 130.316C-16.9227 130.824 -16.3016 131.059 -15.5559 131.02L-12.8077 130.876ZM3.19412 133.53C2.5763 133.562 2.04597 133.43 1.60314 133.133C1.1805 132.813 0.801072 132.299 0.464853 131.59L-5.75845 118.009L-1.18872 117.77L3.15655 128.533L3.22046 128.53L6.4488 117.37L11.0185 117.13L5.43105 133.413L3.19412 133.53ZM19.4977 132.932C18.1555 133.002 16.9496 132.82 15.88 132.385C14.8307 131.927 13.9949 131.266 13.3728 130.401C12.7496 129.515 12.4073 128.486 12.3459 127.315L12.1298 123.192C12.0639 121.935 12.2935 120.812 12.8185 119.824C13.3434 118.835 14.1033 118.047 15.0979 117.461C16.1139 116.874 17.293 116.545 18.6352 116.475L21.1917 116.341C23.2368 116.233 24.9074 116.723 26.2033 117.808C27.4993 118.894 28.1975 120.395 28.298 122.313L28.4755 125.7L16.6517 126.32L16.6919 127.087C16.7287 127.79 16.982 128.343 17.4517 128.745C17.9215 129.148 18.5398 129.329 19.3067 129.289L21.7993 129.158C22.545 129.119 23.1331 128.928 23.5637 128.585C24.0146 128.22 24.226 127.771 24.1981 127.238L28.4802 127.014C28.5361 128.079 28.2981 129.042 27.7665 129.903C27.2348 130.764 26.4587 131.446 25.4383 131.948C24.4391 132.449 23.2685 132.734 21.9263 132.805L19.4977 132.932ZM24.0292 122.793L24.0158 122.537C23.9723 121.706 23.714 121.058 23.2409 120.591C22.7667 120.103 22.1568 119.879 21.4112 119.918L18.8227 120.054C18.0558 120.094 17.4519 120.392 17.0111 120.95C16.5704 121.507 16.3729 122.222 16.4186 123.096L16.4237 123.191L24.0292 122.793ZM30.9237 116.087L34.9502 115.876L35.0574 117.921C35.4298 117.282 35.9787 116.751 36.7043 116.329C37.45 115.884 38.2383 115.639 39.0692 115.596L41.2422 115.482L41.4398 119.253L39.2668 119.367C38.1377 119.426 37.2395 119.815 36.5722 120.533C35.9049 121.252 35.5991 122.144 35.6549 123.209L36.1054 131.805L31.7594 132.033L30.9237 116.087Z" fill="#1E1E1E"/>
<g clip-path="url(#clip1_585_120)">
<rect width="26.1" height="29" transform="translate(69.8691 103.5) rotate(-3)" fill="url(#paint1_linear_585_120)"/>
<circle cx="68.4206" cy="103.575" r="14.5" transform="rotate(-3 68.4206 103.575)" fill="#F0F2F5"/>
<circle cx="97.3816" cy="102.058" r="14.5" transform="rotate(-3 97.3816 102.058)" fill="#F0F2F5"/>
<circle cx="98.8992" cy="131.018" r="14.5" transform="rotate(-3 98.8992 131.018)" fill="#F0F2F5"/>
<circle cx="69.9382" cy="132.536" r="14.5" transform="rotate(-3 69.9382 132.536)" fill="#F0F2F5"/>
</g>
<path d="M131.361 126.813C130.445 126.861 129.685 126.623 129.081 126.099C128.477 125.576 128.151 124.866 128.104 123.971L127.089 104.606L137.763 104.047C139.467 103.957 140.975 104.199 142.287 104.771C143.62 105.342 144.668 106.195 145.433 107.33C146.219 108.464 146.652 109.797 146.732 111.331L147.06 117.595C147.204 120.343 146.6 122.468 145.248 123.97C143.894 125.451 141.832 126.264 139.063 126.409L131.361 126.813ZM138.731 122.517C140.094 122.446 141.107 121.998 141.768 121.173C142.43 120.347 142.721 119.168 142.64 117.634L142.332 111.754C142.269 110.54 141.824 109.591 140.997 108.908C140.17 108.204 139.117 107.885 137.839 107.952L131.703 108.274L132.467 122.846L138.731 122.517ZM156.785 125.737C155.442 125.807 154.236 125.625 153.167 125.189C152.118 124.732 151.282 124.071 150.66 123.206C150.036 122.32 149.694 121.291 149.633 120.119L149.417 115.997C149.351 114.74 149.58 113.617 150.105 112.628C150.63 111.64 151.39 110.852 152.385 110.266C153.401 109.679 154.58 109.35 155.922 109.279L158.479 109.145C160.524 109.038 162.194 109.528 163.49 110.613C164.786 111.699 165.484 113.2 165.585 115.118L165.762 118.505L153.939 119.125L153.979 119.892C154.016 120.595 154.269 121.148 154.739 121.55C155.208 121.953 155.827 122.134 156.594 122.094L159.086 121.963C159.832 121.924 160.42 121.733 160.851 121.39C161.301 121.025 161.513 120.576 161.485 120.043L165.767 119.819C165.823 120.884 165.585 121.847 165.053 122.708C164.522 123.569 163.746 124.251 162.725 124.753C161.726 125.254 160.555 125.539 159.213 125.61L156.785 125.737ZM161.316 115.598L161.303 115.342C161.259 114.511 161.001 113.863 160.528 113.396C160.054 112.908 159.444 112.684 158.698 112.723L156.11 112.859C155.343 112.899 154.739 113.197 154.298 113.755C153.857 114.312 153.66 115.027 153.706 115.901L153.711 115.996L161.316 115.598ZM174.716 124.797C172.777 124.899 171.195 124.469 169.97 123.508C168.745 122.547 168.088 121.235 168.001 119.573L172.283 119.349C172.314 119.924 172.53 120.383 172.932 120.725C173.355 121.045 173.886 121.188 174.525 121.154L177.401 121.003C178.679 120.936 179.3 120.551 179.263 119.848L179.235 119.305C179.224 119.092 179.107 118.906 178.885 118.747C178.662 118.566 178.368 118.453 178.002 118.408L172.423 117.739C171.113 117.595 170.055 117.191 169.252 116.528C168.468 115.843 168.051 115.021 168.001 114.062L167.946 113.007C167.874 111.644 168.372 110.55 169.44 109.725C170.529 108.898 172.075 108.433 174.077 108.328L176.57 108.197C178.359 108.104 179.822 108.508 180.959 109.409C182.116 110.289 182.735 111.506 182.817 113.061L178.535 113.285C178.51 112.817 178.331 112.452 177.997 112.192C177.684 111.931 177.272 111.814 176.761 111.84L174.332 111.968C172.947 112.04 172.272 112.396 172.305 113.035L172.332 113.546C172.344 113.781 172.44 113.979 172.619 114.14C172.819 114.279 173.091 114.372 173.435 114.418L179.306 115.168C180.532 115.317 181.536 115.724 182.318 116.388C183.1 117.03 183.513 117.788 183.559 118.662L183.619 119.812C183.692 121.197 183.174 122.324 182.066 123.194C180.979 124.063 179.488 124.547 177.592 124.646L174.716 124.797ZM188.419 106.327C187.588 106.37 186.904 106.171 186.368 105.729C185.853 105.265 185.574 104.639 185.533 103.85C185.492 103.062 185.704 102.421 186.169 101.926C186.655 101.41 187.313 101.129 188.144 101.086C188.975 101.042 189.648 101.253 190.164 101.717C190.7 102.159 190.988 102.774 191.029 103.562C191.071 104.351 190.849 105.003 190.363 105.52C189.898 106.014 189.249 106.283 188.419 106.327ZM186.324 107.943L190.67 107.715L191.506 123.661L187.16 123.889L186.324 107.943ZM202.33 129.598C200.626 129.688 199.184 129.272 198.003 128.351C196.824 127.452 196.129 126.217 195.918 124.647L200.2 124.423C200.268 124.889 200.479 125.252 200.834 125.511C201.191 125.792 201.625 125.918 202.136 125.892L205.012 125.741C205.672 125.706 206.191 125.401 206.566 124.826C206.965 124.271 207.141 123.557 207.095 122.684L207.016 121.182C206.615 121.673 206.112 122.073 205.509 122.382C204.927 122.69 204.359 122.859 203.805 122.888L201.6 123.004C199.661 123.105 198.065 122.612 196.812 121.524C195.58 120.435 194.915 118.953 194.817 117.079L194.646 113.819C194.578 112.519 194.795 111.365 195.298 110.356C195.799 109.326 196.536 108.518 197.51 107.933C198.482 107.327 199.618 106.989 200.918 106.921L202.771 106.824C203.495 106.786 204.207 106.92 204.907 107.225C205.628 107.529 206.216 107.947 206.671 108.478L206.587 106.881L210.614 106.67L211.441 122.456C211.51 123.777 211.294 124.952 210.793 125.983C210.313 127.012 209.586 127.83 208.614 128.436C207.642 129.042 206.506 129.38 205.206 129.448L202.33 129.598ZM203.9 119.198C204.71 119.156 205.374 118.79 205.893 118.1C206.412 117.389 206.685 116.489 206.713 115.398L206.598 113.193C206.468 112.345 206.144 111.678 205.628 111.193C205.111 110.707 204.48 110.484 203.734 110.523L201.497 110.64C200.709 110.681 200.085 111.003 199.625 111.603C199.165 112.204 198.96 112.973 199.009 113.911L199.146 116.531C199.192 117.405 199.452 118.096 199.928 118.605C200.403 119.114 200.992 119.35 201.695 119.314L203.9 119.198ZM214.335 106.475L218.361 106.264L218.462 108.181C218.896 107.496 219.476 106.942 220.201 106.52C220.926 106.076 221.661 105.834 222.406 105.795L224.324 105.695C226.028 105.605 227.419 106.067 228.498 107.078C229.597 108.089 230.193 109.467 230.285 111.214L230.829 121.6L226.483 121.828L225.947 111.602C225.912 110.941 225.703 110.418 225.32 110.032C224.958 109.646 224.5 109.467 223.946 109.496L222.029 109.596C221.283 109.635 220.626 109.947 220.059 110.533C219.512 111.095 219.165 111.818 219.019 112.702L219.517 122.193L215.17 122.421L214.335 106.475Z" fill="#1E1E1E"/>
<g clip-path="url(#clip2_585_120)">
<rect width="26.1" height="29" transform="translate(260.707 93.498) rotate(-3)" fill="url(#paint2_linear_585_120)"/>
<circle cx="259.259" cy="93.5738" r="14.5" transform="rotate(-3 259.259 93.5738)" fill="#F0F2F5"/>
<circle cx="288.219" cy="92.0562" r="14.5" transform="rotate(-3 288.219 92.0562)" fill="#F0F2F5"/>
<circle cx="289.737" cy="121.017" r="14.5" transform="rotate(-3 289.737 121.017)" fill="#F0F2F5"/>
<circle cx="260.776" cy="122.534" r="14.5" transform="rotate(-3 260.776 122.534)" fill="#F0F2F5"/>
</g>
<path d="M322.199 116.811C321.283 116.859 320.523 116.622 319.919 116.098C319.314 115.574 318.989 114.865 318.942 113.97L317.927 94.6046L328.6 94.0452C330.305 93.9559 331.813 94.1973 333.125 94.7694C334.458 95.3405 335.506 96.1934 336.271 97.3283C337.056 98.4621 337.49 99.7959 337.57 101.33L337.898 107.593C338.042 110.341 337.438 112.467 336.085 113.969C334.732 115.45 332.67 116.263 329.901 116.408L322.199 116.811ZM329.568 112.516C330.932 112.444 331.944 111.996 332.606 111.171C333.268 110.346 333.559 109.166 333.478 107.633L333.17 101.753C333.106 100.538 332.661 99.5896 331.835 98.9066C331.008 98.2023 329.955 97.8836 328.677 97.9506L322.541 98.2721L323.305 112.844L329.568 112.516ZM347.622 115.735C346.28 115.806 345.074 115.623 344.005 115.188C342.955 114.73 342.12 114.069 341.498 113.204C340.874 112.319 340.532 111.29 340.471 110.118L340.255 105.996C340.189 104.739 340.418 103.616 340.943 102.627C341.468 101.638 342.228 100.851 343.223 100.264C344.239 99.6772 345.418 99.3483 346.76 99.278L349.316 99.144C351.362 99.0368 353.032 99.5261 354.328 100.612C355.624 101.697 356.322 103.199 356.423 105.116L356.6 108.504L344.776 109.123L344.817 109.89C344.853 110.593 345.107 111.146 345.576 111.549C346.046 111.951 346.665 112.133 347.431 112.092L349.924 111.962C350.67 111.923 351.258 111.732 351.688 111.389C352.139 111.023 352.351 110.574 352.323 110.042L356.605 109.817C356.661 110.882 356.423 111.846 355.891 112.707C355.36 113.568 354.583 114.249 353.563 114.751C352.564 115.252 351.393 115.538 350.051 115.608L347.622 115.735ZM352.154 105.596L352.141 105.341C352.097 104.51 351.839 103.861 351.366 103.395C350.891 102.907 350.282 102.682 349.536 102.721L346.947 102.857C346.181 102.897 345.577 103.196 345.136 103.753C344.695 104.31 344.498 105.026 344.543 105.899L344.548 105.995L352.154 105.596ZM366.084 114.512C365.466 114.544 364.936 114.412 364.493 114.114C364.07 113.795 363.691 113.28 363.354 112.572L357.131 98.9908L361.701 98.7513L366.046 109.515L366.11 109.511L369.338 98.3511L373.908 98.1116L368.321 114.394L366.084 114.512ZM382.387 113.913C381.045 113.984 379.839 113.801 378.77 113.366C377.72 112.908 376.884 112.247 376.262 111.383C375.639 110.497 375.297 109.468 375.235 108.296L375.019 104.174C374.953 102.917 375.183 101.794 375.708 100.805C376.233 99.8162 376.993 99.0287 377.987 98.4425C379.003 97.8552 380.183 97.5264 381.525 97.4561L384.081 97.3221C386.126 97.2149 387.797 97.7041 389.093 98.7898C390.389 99.8755 391.087 101.377 391.187 103.294L391.365 106.682L379.541 107.301L379.581 108.068C379.618 108.771 379.872 109.324 380.341 109.727C380.811 110.129 381.429 110.311 382.196 110.27L384.689 110.14C385.435 110.101 386.023 109.91 386.453 109.567C386.904 109.201 387.116 108.752 387.088 108.22L391.37 107.995C391.426 109.06 391.188 110.024 390.656 110.885C390.124 111.746 389.348 112.427 388.328 112.929C387.329 113.43 386.158 113.716 384.816 113.786L382.387 113.913ZM386.919 103.774L386.905 103.519C386.862 102.688 386.604 102.039 386.13 101.573C385.656 101.085 385.046 100.86 384.301 100.899L381.712 101.035C380.945 101.075 380.341 101.374 379.901 101.931C379.46 102.488 379.262 103.204 379.308 104.077L379.313 104.173L386.919 103.774ZM400.145 112.726C398.249 112.826 396.833 112.505 395.897 111.763C394.981 111 394.479 109.776 394.391 108.093L393.477 90.6452L397.823 90.4174L398.724 107.61C398.75 108.121 398.887 108.488 399.134 108.71C399.38 108.932 399.759 109.03 400.271 109.003L401.996 108.912L402.191 112.619L400.145 112.726ZM410.286 112.451C408.944 112.522 407.737 112.329 406.666 111.872C405.616 111.393 404.778 110.689 404.152 109.761C403.548 108.831 403.213 107.738 403.147 106.481L402.951 102.742C402.886 101.485 403.115 100.362 403.64 99.3733C404.164 98.3631 404.923 97.565 405.918 96.9788C406.934 96.3914 408.113 96.0626 409.455 95.9923L412.331 95.8416C413.673 95.7712 414.87 95.9756 415.92 96.4546C416.992 96.9325 417.841 97.6463 418.468 98.5962C419.093 99.5247 419.439 100.617 419.505 101.874L419.701 105.613C419.767 106.87 419.537 107.993 419.012 108.982C418.487 109.971 417.717 110.759 416.701 111.346C415.705 111.911 414.525 112.229 413.162 112.301L410.286 112.451ZM412.902 108.565C413.69 108.524 414.305 108.225 414.745 107.667C415.185 107.089 415.382 106.363 415.336 105.49L415.174 102.39C415.128 101.516 414.857 100.826 414.36 100.317C413.862 99.7882 413.23 99.5436 412.463 99.5838L409.715 99.7278C408.948 99.768 408.345 100.077 407.905 100.656C407.464 101.213 407.267 101.928 407.313 102.802L407.475 105.901C407.521 106.775 407.793 107.476 408.29 108.006C408.787 108.514 409.408 108.748 410.154 108.709L412.902 108.565ZM422.243 95.5785L426.269 95.3674L426.36 97.0931C426.776 96.4731 427.315 95.9642 427.978 95.5663C428.662 95.1673 429.335 94.9504 429.995 94.9158L432.008 94.8103C433.286 94.7433 434.429 94.9505 435.437 95.4317C436.444 95.8916 437.238 96.5763 437.82 97.4858C438.402 98.3953 438.725 99.4572 438.788 100.672L438.976 104.251C439.045 105.571 438.84 106.757 438.361 107.808C437.881 108.837 437.176 109.654 436.246 110.258C435.317 110.862 434.223 111.197 432.967 111.263L430.889 111.372C430.293 111.403 429.668 111.297 429.014 111.053C428.382 110.809 427.83 110.464 427.358 110.019L427.76 117.688L423.414 117.916L422.243 95.5785ZM432.195 107.554C432.984 107.513 433.596 107.181 434.034 106.56C434.471 105.939 434.664 105.139 434.613 104.159L434.459 101.219C434.415 100.388 434.135 99.7297 433.618 99.2441C433.123 98.7574 432.481 98.5347 431.693 98.576L429.743 98.6782C429.126 98.7105 428.553 98.9969 428.026 99.5372C427.498 100.056 427.127 100.717 426.912 101.518L427.078 104.682C427.234 105.614 427.593 106.353 428.156 106.901C428.74 107.447 429.426 107.699 430.214 107.658L432.195 107.554Z" fill="#1E1E1E"/>
<g clip-path="url(#clip3_585_120)">
<rect width="26.1" height="29" transform="translate(468.521 82.6069) rotate(-3)" fill="url(#paint3_linear_585_120)"/>
<circle cx="467.073" cy="82.6827" r="14.5" transform="rotate(-3 467.073 82.6827)" fill="#F0F2F5"/>
<circle cx="496.034" cy="81.1651" r="14.5" transform="rotate(-3 496.034 81.1651)" fill="#F0F2F5"/>
<circle cx="497.551" cy="110.126" r="14.5" transform="rotate(-3 497.551 110.126)" fill="#F0F2F5"/>
<circle cx="468.591" cy="111.643" r="14.5" transform="rotate(-3 468.591 111.643)" fill="#F0F2F5"/>
</g>
<path d="M530.014 105.92C529.098 105.968 528.337 105.73 527.733 105.207C527.129 104.683 526.803 103.974 526.756 103.079L525.742 83.7135L536.415 83.1541C538.119 83.0648 539.627 83.3062 540.939 83.8783C542.272 84.4493 543.321 85.3023 544.085 86.4372C544.871 87.5709 545.304 88.9048 545.384 90.4387L545.713 96.7021C545.857 99.4503 545.252 101.575 543.9 103.078C542.546 104.559 540.485 105.372 537.715 105.517L530.014 105.92ZM537.383 101.625C538.746 101.553 539.759 101.105 540.421 100.28C541.082 99.4548 541.373 98.2753 541.293 96.7414L540.985 90.8615C540.921 89.6472 540.476 88.6985 539.65 88.0155C538.822 87.3111 537.77 86.9925 536.491 87.0595L530.356 87.381L531.119 101.953L537.383 101.625ZM551.058 87.3215C550.227 87.365 549.544 87.1658 549.008 86.7239C548.492 86.2596 548.214 85.6333 548.172 84.8451C548.131 84.0568 548.343 83.4155 548.808 82.9212C549.294 82.4044 549.952 82.1242 550.783 82.0807C551.614 82.0371 552.287 82.2475 552.803 82.7118C553.339 83.1537 553.627 83.7688 553.669 84.557C553.71 85.3453 553.488 85.9978 553.002 86.5146C552.537 87.009 551.889 87.2779 551.058 87.3215ZM548.963 88.9373L553.31 88.7095L554.145 104.656L549.799 104.883L548.963 88.9373ZM564.1 104.39C562.161 104.492 560.579 104.062 559.354 103.101C558.128 102.14 557.472 100.828 557.385 99.1666L561.667 98.9421C561.697 99.5173 561.914 99.976 562.316 100.318C562.739 100.638 563.27 100.781 563.909 100.747L566.785 100.597C568.063 100.53 568.684 100.145 568.647 99.4415L568.618 98.8983C568.607 98.6852 568.491 98.4991 568.269 98.3398C568.046 98.1592 567.751 98.0465 567.386 98.0016L561.807 97.3326C560.496 97.1877 559.439 96.7838 558.635 96.1209C557.852 95.4357 557.435 94.6137 557.385 93.655L557.329 92.6005C557.258 91.237 557.756 90.1428 558.824 89.3178C559.913 88.4916 561.458 88.0261 563.461 87.9212L565.954 87.7905C567.743 87.6967 569.206 88.1007 570.343 89.0025C571.5 89.8818 572.119 91.099 572.201 92.6542L567.918 92.8787C567.894 92.41 567.715 92.0455 567.381 91.7853C567.068 91.524 566.656 91.4067 566.144 91.4335L563.716 91.5608C562.331 91.6334 561.655 91.9892 561.689 92.6284L561.716 93.1397C561.728 93.374 561.824 93.5719 562.003 93.7334C562.203 93.8725 562.475 93.9651 562.819 94.0111L568.69 94.7609C569.916 94.9103 570.92 95.3169 571.702 95.9809C572.483 96.6236 572.897 97.3816 572.943 98.2551L573.003 99.4055C573.076 100.79 572.558 101.918 571.45 102.787C570.363 103.656 568.872 104.14 566.976 104.24L564.1 104.39ZM582.149 103.444C580.807 103.515 579.6 103.311 578.528 102.833C577.478 102.354 576.64 101.65 576.015 100.722C575.41 99.792 575.075 98.6987 575.01 97.4418L574.814 93.7029C574.748 92.446 574.967 91.3237 575.47 90.3359C575.995 89.3471 576.755 88.5596 577.75 87.9734C578.744 87.3872 579.913 87.059 581.255 86.9886L583.78 86.8563C585.058 86.7893 586.2 86.9858 587.207 87.4457C588.214 87.9057 589.008 88.5904 589.59 89.4998C590.17 90.388 590.493 91.4393 590.556 92.6536L586.242 92.8797C586.204 92.1553 585.972 91.5907 585.545 91.1859C585.138 90.7586 584.615 90.5617 583.975 90.5952L581.515 90.7241C580.769 90.7632 580.177 91.072 579.737 91.6505C579.317 92.2065 579.131 92.9213 579.176 93.7947L579.339 96.8945C579.385 97.7679 579.656 98.4693 580.154 98.9987C580.651 99.5067 581.272 99.7412 582.017 99.7021L584.478 99.5732C585.16 99.5375 585.69 99.264 586.069 98.7528C586.47 98.2405 586.649 97.5795 586.606 96.77L590.92 96.5439C591.022 98.4825 590.496 100.07 589.343 101.305C588.212 102.539 586.655 103.208 584.674 103.312L582.149 103.444ZM600.031 102.507C598.689 102.578 597.483 102.384 596.412 101.928C595.361 101.449 594.523 100.745 593.898 99.8165C593.294 98.8869 592.959 97.7936 592.893 96.5366L592.697 92.7977C592.631 91.5408 592.861 90.4179 593.386 89.4291C593.909 88.419 594.669 87.6208 595.663 87.0346C596.679 86.4473 597.858 86.1185 599.201 86.0481L602.077 85.8974C603.419 85.8271 604.615 86.0314 605.666 86.5104C606.737 86.9883 607.587 87.7022 608.213 88.652C608.839 89.5805 609.184 90.6733 609.25 91.9302L609.446 95.6691C609.512 96.926 609.283 98.0489 608.758 99.0378C608.233 100.027 607.462 100.815 606.446 101.402C605.45 101.967 604.271 102.285 602.907 102.356L600.031 102.507ZM602.647 98.621C603.436 98.5797 604.05 98.2804 604.491 97.7233C604.931 97.1448 605.128 96.4188 605.082 95.5453L604.919 92.4456C604.874 91.5721 604.602 90.8814 604.106 90.3733C603.608 89.844 602.976 89.5994 602.209 89.6396L599.46 89.7836C598.694 89.8238 598.09 90.1332 597.651 90.7116C597.21 91.2688 597.012 91.9841 597.058 92.8576L597.221 95.9573C597.266 96.8308 597.538 97.5322 598.036 98.0616C598.532 98.5696 599.153 98.8041 599.899 98.765L602.647 98.621ZM618.649 101.275C618.031 101.308 617.501 101.175 617.058 100.878C616.636 100.558 616.256 100.044 615.92 99.3353L609.697 85.7544L614.266 85.5149L618.612 96.2782L618.676 96.2749L621.904 85.1146L626.474 84.8752L620.886 101.158L618.649 101.275ZM634.953 100.677C633.611 100.747 632.405 100.565 631.335 100.13C630.286 99.6719 629.45 99.0108 628.828 98.1461C628.205 97.2602 627.862 96.2314 627.801 95.0596L627.585 90.9373C627.519 89.6804 627.749 88.5575 628.274 87.5686C628.799 86.5798 629.558 85.7923 630.553 85.2061C631.569 84.6188 632.748 84.29 634.09 84.2196L636.647 84.0857C638.692 83.9785 640.362 84.4677 641.658 85.5534C642.954 86.639 643.653 88.1406 643.753 90.0579L643.931 93.4453L632.107 94.0649L632.147 94.8319C632.184 95.5349 632.437 96.0878 632.907 96.4904C633.377 96.893 633.995 97.0742 634.762 97.034L637.254 96.9034C638 96.8643 638.588 96.6733 639.019 96.3303C639.47 95.9649 639.681 95.5158 639.653 94.9832L643.935 94.7588C643.991 95.824 643.753 96.7871 643.222 97.6481C642.69 98.5091 641.914 99.1907 640.893 99.6928C639.894 100.194 638.724 100.479 637.381 100.55L634.953 100.677ZM639.484 90.538L639.471 90.2823C639.427 89.4515 639.169 88.8028 638.696 88.3362C638.222 87.8484 637.612 87.624 636.866 87.6631L634.278 87.7987C633.511 87.8389 632.907 88.1376 632.466 88.6948C632.025 89.2519 631.828 89.9672 631.874 90.8407L631.879 90.9366L639.484 90.538ZM646.379 83.832L650.405 83.621L650.512 85.6661C650.885 85.0271 651.434 84.4963 652.159 84.0738C652.905 83.6288 653.693 83.3845 654.524 83.341L656.697 83.2271L656.895 86.9979L654.722 87.1118C653.593 87.171 652.695 87.5599 652.027 88.2784C651.36 88.997 651.054 89.8889 651.11 90.9541L651.561 99.5503L647.214 99.7781L646.379 83.832Z" fill="#1E1E1E"/>
<g clip-path="url(#clip4_585_120)">
<rect width="26.1" height="29" transform="translate(685.324 71.2446) rotate(-3)" fill="url(#paint4_linear_585_120)"/>
<circle cx="683.876" cy="71.3204" r="14.5" transform="rotate(-3 683.876 71.3204)" fill="#F0F2F5"/>
<circle cx="712.837" cy="69.8028" r="14.5" transform="rotate(-3 712.837 69.8028)" fill="#F0F2F5"/>
<circle cx="714.354" cy="98.7632" r="14.5" transform="rotate(-3 714.354 98.7632)" fill="#F0F2F5"/>
<circle cx="685.393" cy="100.281" r="14.5" transform="rotate(-3 685.393 100.281)" fill="#F0F2F5"/>
</g>
<path d="M746.816 94.5585C745.9 94.6065 745.14 94.3686 744.536 93.8449C743.932 93.3211 743.606 92.6119 743.559 91.7171L742.544 72.3517L753.218 71.7923C754.922 71.703 756.43 71.9444 757.742 72.5165C759.075 73.0875 760.123 73.9405 760.888 75.0754C761.674 76.2091 762.107 77.543 762.187 79.0768L762.515 85.3403C762.659 88.0885 762.055 90.2137 760.703 91.7159C759.349 93.1967 757.287 94.0097 754.518 94.1549L746.816 94.5585ZM754.186 90.2629C755.549 90.1915 756.562 89.7432 757.223 88.9181C757.885 88.093 758.176 86.9135 758.095 85.3796L757.787 79.4997C757.724 78.2854 757.279 77.3367 756.452 76.6537C755.625 75.9493 754.572 75.6307 753.294 75.6976L747.159 76.0192L747.922 90.5912L754.186 90.2629ZM772.24 93.4825C770.897 93.5528 769.692 93.3703 768.622 92.9351C767.573 92.4774 766.737 91.8162 766.115 90.9516C765.492 90.0656 765.149 89.0368 765.088 87.8651L764.872 83.7427C764.806 82.4858 765.035 81.3629 765.56 80.3741C766.085 79.3853 766.845 78.5977 767.84 78.0115C768.856 77.4242 770.035 77.0954 771.377 77.0251L773.934 76.8911C775.979 76.7839 777.649 77.2731 778.945 78.3588C780.241 79.4445 780.939 80.946 781.04 82.8634L781.217 86.2507L769.394 86.8704L769.434 87.6373C769.471 88.3404 769.724 88.8932 770.194 89.2958C770.663 89.6985 771.282 89.8797 772.049 89.8395L774.541 89.7089C775.287 89.6698 775.875 89.4787 776.306 89.1357C776.757 88.7703 776.968 88.3213 776.94 87.7887L781.222 87.5643C781.278 88.6295 781.04 89.5926 780.508 90.4536C779.977 91.3146 779.201 91.9961 778.18 92.4982C777.181 92.9992 776.01 93.2849 774.668 93.3552L772.24 93.4825ZM776.771 83.3434L776.758 83.0878C776.714 82.2569 776.456 81.6082 775.983 81.1417C775.509 80.6538 774.899 80.4294 774.153 80.4685L771.565 80.6042C770.798 80.6444 770.194 80.943 769.753 81.5002C769.312 82.0574 769.115 82.7727 769.161 83.6461L769.166 83.742L776.771 83.3434ZM790.171 92.5427C788.232 92.6443 786.65 92.2145 785.425 91.2534C784.2 90.2922 783.543 88.9807 783.456 87.319L787.739 87.0946C787.769 87.6698 787.985 88.1284 788.387 88.4705C788.81 88.7902 789.341 88.9332 789.98 88.8997L792.856 88.749C794.134 88.682 794.755 88.297 794.718 87.594L794.69 87.0507C794.679 86.8377 794.562 86.6515 794.34 86.4923C794.117 86.3117 793.823 86.1989 793.457 86.154L787.878 85.485C786.568 85.3401 785.511 84.9362 784.707 84.2734C783.923 83.5881 783.506 82.7661 783.456 81.8075L783.401 80.7529C783.329 79.3895 783.827 78.2952 784.895 77.4702C785.984 76.6441 787.53 76.1786 789.532 76.0736L792.025 75.943C793.814 75.8492 795.277 76.2532 796.414 77.1549C797.571 78.0342 798.19 79.2515 798.272 80.8067L793.99 81.0311C793.965 80.5624 793.786 80.198 793.452 79.9378C793.139 79.6764 792.727 79.5592 792.216 79.586L789.787 79.7133C788.402 79.7858 787.727 80.1417 787.76 80.7808L787.787 81.2921C787.799 81.5264 787.895 81.7244 788.074 81.8859C788.274 82.0249 788.546 82.1175 788.89 82.1636L794.761 82.9133C795.987 83.0627 796.991 83.4694 797.773 84.1333C798.555 84.776 798.968 85.5341 799.014 86.4075L799.074 87.5579C799.147 88.9427 798.629 90.07 797.521 90.9399C796.434 91.8086 794.943 92.2926 793.047 92.392L790.171 92.5427ZM803.874 74.0723C803.043 74.1158 802.359 73.9167 801.824 73.4748C801.308 73.0104 801.029 72.3842 800.988 71.5959C800.947 70.8077 801.159 70.1664 801.624 69.672C802.11 69.1552 802.768 68.875 803.599 68.8315C804.43 68.7879 805.103 68.9983 805.619 69.4626C806.155 69.9045 806.443 70.5196 806.484 71.3079C806.526 72.0961 806.304 72.7486 805.818 73.2654C805.353 73.7598 804.704 74.0287 803.874 74.0723ZM801.779 75.6881L806.125 75.4603L806.961 91.4065L802.615 91.6342L801.779 75.6881ZM817.785 97.3441C816.081 97.4334 814.639 97.0177 813.458 96.0969C812.279 95.1973 811.584 93.9627 811.373 92.3929L815.656 92.1685C815.723 92.6349 815.934 92.9977 816.289 93.2568C816.646 93.5372 817.08 93.664 817.591 93.6372L820.467 93.4865C821.128 93.4518 821.646 93.147 822.021 92.5719C822.42 92.0169 822.596 91.3027 822.55 90.4293L822.471 88.9273C822.07 89.4183 821.567 89.8185 820.964 90.1278C820.382 90.4361 819.814 90.6047 819.26 90.6337L817.055 90.7493C815.117 90.8509 813.521 90.3577 812.267 89.2698C811.035 88.1808 810.37 86.6989 810.272 84.8242L810.101 81.5646C810.033 80.2651 810.25 79.1108 810.753 78.1018C811.254 77.0715 811.991 76.2638 812.965 75.6787C813.937 75.0723 815.073 74.7351 816.373 74.667L818.226 74.5698C818.95 74.5319 819.662 74.6654 820.362 74.9706C821.083 75.2746 821.671 75.6924 822.126 76.224L822.042 74.6262L826.069 74.4152L826.896 90.2015C826.965 91.5223 826.749 92.6979 826.248 93.7283C825.768 94.7575 825.041 95.5753 824.069 96.1816C823.097 96.788 821.961 97.1253 820.661 97.1934L817.785 97.3441ZM819.355 86.9437C820.165 86.9013 820.829 86.5353 821.348 85.8459C821.867 85.1351 822.14 84.2342 822.168 83.1433L822.053 80.9383C821.923 80.0906 821.599 79.4239 821.083 78.9383C820.566 78.4527 819.935 78.2294 819.189 78.2685L816.952 78.3857C816.164 78.427 815.54 78.7481 815.08 79.349C814.62 79.9499 814.415 80.7191 814.464 81.6564L814.601 84.2768C814.647 85.1503 814.907 85.8416 815.383 86.3508C815.858 86.8599 816.447 87.0961 817.15 87.0592L819.355 86.9437ZM829.79 74.2201L833.816 74.0091L833.917 75.9265C834.351 75.2415 834.931 74.6877 835.656 74.2652C836.381 73.8213 837.116 73.5799 837.861 73.5408L839.779 73.4403C841.483 73.351 842.874 73.8121 843.953 74.8237C845.053 75.8342 845.648 77.2129 845.74 78.9599L846.284 89.3456L841.938 89.5734L841.402 79.3474C841.367 78.687 841.158 78.1639 840.775 77.7781C840.413 77.3912 839.955 77.2122 839.401 77.2413L837.484 77.3417C836.738 77.3808 836.082 77.6929 835.514 78.2781C834.967 78.8409 834.62 79.564 834.474 80.4475L834.972 89.9385L830.626 90.1663L829.79 74.2201Z" fill="#1E1E1E"/>
<g clip-path="url(#clip5_585_120)">
<rect width="26.1" height="29" transform="translate(876.162 61.2432) rotate(-3)" fill="url(#paint5_linear_585_120)"/>
<circle cx="874.714" cy="61.3189" r="14.5" transform="rotate(-3 874.714 61.3189)" fill="#F0F2F5"/>
<circle cx="903.675" cy="59.8013" r="14.5" transform="rotate(-3 903.675 59.8013)" fill="#F0F2F5"/>
<circle cx="905.192" cy="88.7618" r="14.5" transform="rotate(-3 905.192 88.7618)" fill="#F0F2F5"/>
<circle cx="876.231" cy="90.2794" r="14.5" transform="rotate(-3 876.231 90.2794)" fill="#F0F2F5"/>
</g>
<path d="M937.654 84.557C936.738 84.6051 935.978 84.3672 935.374 83.8434C934.77 83.3197 934.444 82.6104 934.397 81.7156L933.382 62.3502L944.055 61.7908C945.76 61.7015 947.268 61.9429 948.58 62.515C949.913 63.0861 950.961 63.939 951.726 65.0739C952.512 66.2077 952.945 67.5415 953.025 69.0754L953.353 75.3388C953.497 78.087 952.893 80.2122 951.54 81.7144C950.187 83.1953 948.125 84.0083 945.356 84.1534L937.654 84.557ZM945.024 80.2615C946.387 80.19 947.4 79.7417 948.061 78.9167C948.723 78.0916 949.014 76.9121 948.933 75.3782L948.625 69.4982C948.561 68.2839 948.117 67.3352 947.29 66.6522C946.463 65.9479 945.41 65.6292 944.132 65.6962L937.996 66.0177L938.76 80.5897L945.024 80.2615ZM963.077 83.481C961.735 83.5514 960.529 83.3689 959.46 82.9336C958.41 82.4759 957.575 81.8147 956.953 80.9501C956.329 80.0642 955.987 79.0353 955.926 77.8636L955.71 73.7413C955.644 72.4843 955.873 71.3614 956.398 70.3726C956.923 69.3838 957.683 68.5963 958.678 68.0101C959.694 67.4228 960.873 67.0939 962.215 67.0236L964.771 66.8896C966.817 66.7824 968.487 67.2717 969.783 68.3573C971.079 69.443 971.777 70.9445 971.878 72.8619L972.055 76.2492L960.232 76.8689L960.272 77.6359C960.309 78.3389 960.562 78.8917 961.032 79.2944C961.501 79.697 962.12 79.8782 962.887 79.838L965.379 79.7074C966.125 79.6683 966.713 79.4773 967.144 79.1343C967.594 78.7688 967.806 78.3198 967.778 77.7872L972.06 77.5628C972.116 78.628 971.878 79.5911 971.346 80.4521C970.815 81.3131 970.039 81.9947 969.018 82.4968C968.019 82.9977 966.848 83.2834 965.506 83.3537L963.077 83.481ZM967.609 73.342L967.596 73.0863C967.552 72.2555 967.294 71.6067 966.821 71.1402C966.347 70.6523 965.737 70.428 964.991 70.467L962.403 70.6027C961.636 70.6429 961.032 70.9416 960.591 71.4987C960.15 72.0559 959.953 72.7712 959.998 73.6447L960.004 73.7405L967.609 73.342ZM981.539 82.2572C980.921 82.2895 980.391 82.1571 979.948 81.8599C979.525 81.5402 979.146 81.026 978.809 80.3173L972.586 66.7364L977.156 66.4969L981.501 77.2603L981.565 77.2569L984.793 66.0967L989.363 65.8572L983.776 82.1399L981.539 82.2572ZM997.842 81.6591C996.5 81.7294 995.294 81.5469 994.225 81.1117C993.175 80.6539 992.34 79.9928 991.717 79.1282C991.094 78.2422 990.752 77.2134 990.69 76.0417L990.474 71.9193C990.409 70.6624 990.638 69.5395 991.163 68.5507C991.688 67.5618 992.448 66.7743 993.443 66.1881C994.459 65.6008 995.638 65.272 996.98 65.2017L999.536 65.0677C1001.58 64.9605 1003.25 65.4497 1004.55 66.5354C1005.84 67.6211 1006.54 69.1226 1006.64 71.0399L1006.82 74.4273L994.996 75.047L995.037 75.8139C995.073 76.5169 995.327 77.0698 995.796 77.4724C996.266 77.875 996.884 78.0563 997.651 78.0161L1000.14 77.8854C1000.89 77.8464 1001.48 77.6553 1001.91 77.3123C1002.36 76.9469 1002.57 76.4979 1002.54 75.9653L1006.82 75.7409C1006.88 76.8061 1006.64 77.7692 1006.11 78.6302C1005.58 79.4912 1004.8 80.1727 1003.78 80.6748C1002.78 81.1758 1001.61 81.4615 1000.27 81.5318L997.842 81.6591ZM1002.37 71.52L1002.36 71.2644C1002.32 70.4335 1002.06 69.7848 1001.59 69.3183C1001.11 68.8304 1000.5 68.606 999.756 68.6451L997.167 68.7807C996.4 68.8209 995.797 69.1196 995.356 69.6768C994.915 70.234 994.717 70.9493 994.763 71.8227L994.768 71.9186L1002.37 71.52ZM1015.6 80.4721C1013.7 80.5714 1012.29 80.2504 1011.35 79.5091C1010.44 78.7453 1009.93 77.5219 1009.85 75.8389L1008.93 58.3908L1013.28 58.163L1014.18 75.3554C1014.21 75.8667 1014.34 76.2334 1014.59 76.4555C1014.84 76.6776 1015.21 76.7752 1015.73 76.7484L1017.45 76.658L1017.65 80.3649L1015.6 80.4721ZM1025.74 80.197C1024.4 80.2673 1023.19 80.0742 1022.12 79.6176C1021.07 79.1386 1020.23 78.4348 1019.61 77.5063C1019 76.5766 1018.67 75.4833 1018.6 74.2264L1018.41 70.4875C1018.34 69.2306 1018.57 68.1077 1019.1 67.1189C1019.62 66.1087 1020.38 65.3106 1021.37 64.7244C1022.39 64.1371 1023.57 63.8082 1024.91 63.7379L1027.79 63.5872C1029.13 63.5168 1030.32 63.7212 1031.38 64.2002C1032.45 64.6781 1033.3 65.3919 1033.92 66.3418C1034.55 67.2703 1034.89 68.3631 1034.96 69.62L1035.16 73.3589C1035.22 74.6158 1034.99 75.7387 1034.47 76.7275C1033.94 77.7163 1033.17 78.5044 1032.16 79.0917C1031.16 79.6566 1029.98 79.9748 1028.62 80.0462L1025.74 80.197ZM1028.36 76.3107C1029.15 76.2694 1029.76 75.9702 1030.2 75.413C1030.64 74.8345 1030.84 74.1086 1030.79 73.2351L1030.63 70.1354C1030.58 69.2619 1030.31 68.5711 1029.82 68.0631C1029.32 67.5338 1028.69 67.2892 1027.92 67.3294L1025.17 67.4734C1024.4 67.5136 1023.8 67.8229 1023.36 68.4014C1022.92 68.9586 1022.72 69.6739 1022.77 70.5474L1022.93 73.6471C1022.98 74.5206 1023.25 75.222 1023.75 75.7513C1024.24 76.2594 1024.86 76.4938 1025.61 76.4548L1028.36 76.3107ZM1037.7 63.3241L1041.72 63.113L1041.81 64.8387C1042.23 64.2187 1042.77 63.7098 1043.43 63.3119C1044.12 62.9129 1044.79 62.6961 1045.45 62.6614L1047.46 62.5559C1048.74 62.4889 1049.88 62.6961 1050.89 63.1773C1051.9 63.6373 1052.69 64.322 1053.28 65.2314C1053.86 66.1409 1054.18 67.2028 1054.24 68.4171L1054.43 71.9962C1054.5 73.3171 1054.3 74.5027 1053.82 75.5533C1053.34 76.5825 1052.63 77.3991 1051.7 78.0033C1050.77 78.6074 1049.68 78.9424 1048.42 79.0083L1046.34 79.1172C1045.75 79.1484 1045.12 79.0423 1044.47 78.7989C1043.84 78.5543 1043.28 78.2094 1042.81 77.7642L1043.21 85.4336L1038.87 85.6614L1037.7 63.3241ZM1047.65 75.2996C1048.44 75.2583 1049.05 74.9271 1049.49 74.306C1049.93 73.6849 1050.12 72.8844 1050.07 71.9044L1049.91 68.9645C1049.87 68.1336 1049.59 67.4754 1049.07 66.9897C1048.58 66.503 1047.94 66.2803 1047.15 66.3216L1045.2 66.4238C1044.58 66.4561 1044.01 66.7425 1043.48 67.2828C1042.95 67.8018 1042.58 68.4622 1042.37 69.2638L1042.53 72.4275C1042.69 73.3593 1043.05 74.0988 1043.61 74.6461C1044.19 75.1923 1044.88 75.4447 1045.67 75.4034L1047.65 75.2996Z" fill="#1E1E1E"/>
<g clip-path="url(#clip6_585_120)">
<rect width="26.1" height="29" transform="translate(1083.98 50.3521) rotate(-3)" fill="url(#paint6_linear_585_120)"/>
<circle cx="1082.53" cy="50.4278" r="14.5" transform="rotate(-3 1082.53 50.4278)" fill="#F0F2F5"/>
<circle cx="1111.49" cy="48.9102" r="14.5" transform="rotate(-3 1111.49 48.9102)" fill="#F0F2F5"/>
<circle cx="1113.01" cy="77.8707" r="14.5" transform="rotate(-3 1113.01 77.8707)" fill="#F0F2F5"/>
<circle cx="1084.05" cy="79.3882" r="14.5" transform="rotate(-3 1084.05 79.3882)" fill="#F0F2F5"/>
</g>
<path d="M1145.47 73.6659C1144.55 73.7139 1143.79 73.4761 1143.19 72.9523C1142.58 72.4285 1142.26 71.7193 1142.21 70.8245L1141.2 51.4591L1151.87 50.8997C1153.57 50.8104 1155.08 51.0518 1156.39 51.6239C1157.73 52.195 1158.78 53.0479 1159.54 54.1828C1160.33 55.3165 1160.76 56.6504 1160.84 58.1843L1161.17 64.4477C1161.31 67.1959 1160.71 69.3211 1159.35 70.8233C1158 72.3042 1155.94 73.1172 1153.17 73.2623L1145.47 73.6659ZM1152.84 69.3704C1154.2 69.2989 1155.21 68.8506 1155.88 68.0255C1156.54 67.2004 1156.83 66.0209 1156.75 64.4871L1156.44 58.6071C1156.38 57.3928 1155.93 56.4441 1155.1 55.7611C1154.28 55.0567 1153.22 54.7381 1151.95 54.8051L1145.81 55.1266L1146.57 69.6986L1152.84 69.3704ZM1166.51 55.0671C1165.68 55.1106 1165 54.9114 1164.46 54.4695C1163.95 54.0052 1163.67 53.379 1163.63 52.5907C1163.59 51.8024 1163.8 51.1611 1164.26 50.6668C1164.75 50.15 1165.41 49.8698 1166.24 49.8263C1167.07 49.7827 1167.74 49.9931 1168.26 50.4574C1168.79 50.8993 1169.08 51.5144 1169.12 52.3026C1169.17 53.0909 1168.94 53.7434 1168.46 54.2602C1167.99 54.7546 1167.34 55.0235 1166.51 55.0671ZM1164.42 56.6829L1168.76 56.4551L1169.6 72.4012L1165.25 72.629L1164.42 56.6829ZM1179.55 72.1359C1177.62 72.2375 1176.03 71.8077 1174.81 70.8465C1173.58 69.8853 1172.93 68.5739 1172.84 66.9122L1177.12 66.6877C1177.15 67.263 1177.37 67.7216 1177.77 68.0637C1178.19 68.3833 1178.72 68.5264 1179.36 68.4929L1182.24 68.3422C1183.52 68.2752 1184.14 67.8902 1184.1 67.1871L1184.07 66.6439C1184.06 66.4308 1183.95 66.2447 1183.72 66.0854C1183.5 65.9048 1183.21 65.7921 1182.84 65.7472L1177.26 65.0782C1175.95 64.9333 1174.89 64.5294 1174.09 63.8665C1173.31 63.1813 1172.89 62.3593 1172.84 61.4006L1172.78 60.3461C1172.71 58.9826 1173.21 57.8884 1174.28 57.0634C1175.37 56.2373 1176.91 55.7717 1178.92 55.6668L1181.41 55.5361C1183.2 55.4423 1184.66 55.8463 1185.8 56.7481C1186.95 57.6274 1187.57 58.8447 1187.66 60.3999L1183.37 60.6243C1183.35 60.1556 1183.17 59.7911 1182.84 59.5309C1182.52 59.2696 1182.11 59.1523 1181.6 59.1791L1179.17 59.3064C1177.79 59.379 1177.11 59.7348 1177.14 60.374L1177.17 60.8853C1177.18 61.1196 1177.28 61.3175 1177.46 61.479C1177.66 61.6181 1177.93 61.7107 1178.27 61.7567L1184.15 62.5065C1185.37 62.6559 1186.37 63.0625 1187.16 63.7265C1187.94 64.3692 1188.35 65.1272 1188.4 66.0007L1188.46 67.1511C1188.53 68.5359 1188.01 69.6632 1186.9 70.533C1185.82 71.4018 1184.33 71.8858 1182.43 71.9852L1179.55 72.1359ZM1197.6 71.19C1196.26 71.2603 1195.06 71.0565 1193.98 70.5786C1192.93 70.0996 1192.1 69.3958 1191.47 68.4673C1190.87 67.5376 1190.53 66.4443 1190.46 65.1874L1190.27 61.4485C1190.2 60.1916 1190.42 59.0693 1190.93 58.0816C1191.45 57.0927 1192.21 56.3052 1193.2 55.719C1194.2 55.1328 1195.37 54.8046 1196.71 54.7342L1199.23 54.6019C1200.51 54.5349 1201.66 54.7314 1202.66 55.1913C1203.67 55.6513 1204.46 56.336 1205.04 57.2454C1205.63 58.1336 1205.95 59.1849 1206.01 60.3992L1201.7 60.6253C1201.66 59.9009 1201.43 59.3363 1201 58.9315C1200.59 58.5042 1200.07 58.3073 1199.43 58.3408L1196.97 58.4697C1196.22 58.5088 1195.63 58.8176 1195.19 59.3961C1194.77 59.9521 1194.59 60.6669 1194.63 61.5403L1194.79 64.6401C1194.84 65.5135 1195.11 66.215 1195.61 66.7443C1196.11 67.2523 1196.73 67.4868 1197.47 67.4477L1199.93 67.3188C1200.61 67.2831 1201.15 67.0096 1201.52 66.4984C1201.92 65.9861 1202.1 65.3251 1202.06 64.5156L1206.38 64.2895C1206.48 66.2281 1205.95 67.8152 1204.8 69.0505C1203.67 70.2848 1202.11 70.9538 1200.13 71.0577L1197.6 71.19ZM1215.49 70.2528C1214.14 70.3232 1212.94 70.13 1211.87 69.6734C1210.82 69.1944 1209.98 68.4907 1209.35 67.5621C1208.75 66.6325 1208.41 65.5392 1208.35 64.2822L1208.15 60.5434C1208.09 59.2864 1208.32 58.1635 1208.84 57.1747C1209.36 56.1646 1210.12 55.3664 1211.12 54.7802C1212.13 54.1929 1213.31 53.8641 1214.66 53.7937L1217.53 53.643C1218.87 53.5727 1220.07 53.777 1221.12 54.256C1222.19 54.7339 1223.04 55.4478 1223.67 56.3976C1224.29 57.3262 1224.64 58.4189 1224.71 59.6758L1224.9 63.4147C1224.97 64.6716 1224.74 65.7945 1224.21 66.7834C1223.69 67.7722 1222.92 68.5603 1221.9 69.1476C1220.91 69.7125 1219.73 70.0306 1218.36 70.1021L1215.49 70.2528ZM1218.1 66.3666C1218.89 66.3253 1219.51 66.026 1219.95 65.4689C1220.39 64.8904 1220.58 64.1644 1220.54 63.291L1220.37 60.1912C1220.33 59.3177 1220.06 58.627 1219.56 58.1189C1219.06 57.5896 1218.43 57.345 1217.66 57.3852L1214.92 57.5292C1214.15 57.5694 1213.55 57.8788 1213.11 58.4572C1212.66 59.0144 1212.47 59.7297 1212.51 60.6032L1212.68 63.7029C1212.72 64.5764 1212.99 65.2778 1213.49 65.8072C1213.99 66.3152 1214.61 66.5497 1215.35 66.5106L1218.1 66.3666ZM1234.1 69.0207C1233.49 69.0531 1232.96 68.9207 1232.51 68.6235C1232.09 68.3038 1231.71 67.7896 1231.38 67.0809L1225.15 53.5L1229.72 53.2605L1234.07 64.0239L1234.13 64.0205L1237.36 52.8603L1241.93 52.6208L1236.34 68.9035L1234.1 69.0207ZM1250.41 68.4227C1249.07 68.493 1247.86 68.3105 1246.79 67.8752C1245.74 67.4175 1244.91 66.7564 1244.28 65.8917C1243.66 65.0058 1243.32 63.977 1243.26 62.8053L1243.04 58.6829C1242.97 57.426 1243.2 56.3031 1243.73 55.3143C1244.25 54.3254 1245.01 53.5379 1246.01 52.9517C1247.02 52.3644 1248.2 52.0356 1249.55 51.9652L1252.1 51.8313C1254.15 51.7241 1255.82 52.2133 1257.11 53.299C1258.41 54.3846 1259.11 55.8862 1259.21 57.8035L1259.39 61.1909L1247.56 61.8105L1247.6 62.5775C1247.64 63.2805 1247.89 63.8334 1248.36 64.236C1248.83 64.6386 1249.45 64.8198 1250.22 64.7797L1252.71 64.649C1253.46 64.6099 1254.04 64.4189 1254.47 64.0759C1254.92 63.7105 1255.14 63.2615 1255.11 62.7288L1259.39 62.5044C1259.45 63.5696 1259.21 64.5327 1258.68 65.3937C1258.14 66.2548 1257.37 66.9363 1256.35 67.4384C1255.35 67.9394 1254.18 68.225 1252.84 68.2954L1250.41 68.4227ZM1254.94 58.2836L1254.93 58.0279C1254.88 57.1971 1254.62 56.5484 1254.15 56.0818C1253.68 55.594 1253.07 55.3696 1252.32 55.4087L1249.73 55.5443C1248.97 55.5845 1248.36 55.8832 1247.92 56.4404C1247.48 56.9975 1247.28 57.7128 1247.33 58.5863L1247.33 58.6822L1254.94 58.2836ZM1261.83 51.5776L1265.86 51.3666L1265.97 53.4118C1266.34 52.7727 1266.89 52.2419 1267.61 51.8194C1268.36 51.3744 1269.15 51.1301 1269.98 51.0866L1272.15 50.9727L1272.35 54.7435L1270.18 54.8574C1269.05 54.9166 1268.15 55.3055 1267.48 56.0241C1266.82 56.7426 1266.51 57.6345 1266.57 58.6997L1267.02 67.2959L1262.67 67.5237L1261.83 51.5776Z" fill="#1E1E1E"/>
<g clip-path="url(#clip7_585_120)">
<rect width="26.1" height="29" transform="translate(1300.78 38.9902) rotate(-3)" fill="url(#paint7_linear_585_120)"/>
<circle cx="1299.33" cy="39.066" r="14.5" transform="rotate(-3 1299.33 39.066)" fill="#F0F2F5"/>
<circle cx="1328.29" cy="37.5484" r="14.5" transform="rotate(-3 1328.29 37.5484)" fill="#F0F2F5"/>
<circle cx="1329.81" cy="66.5089" r="14.5" transform="rotate(-3 1329.81 66.5089)" fill="#F0F2F5"/>
<circle cx="1300.85" cy="68.0264" r="14.5" transform="rotate(-3 1300.85 68.0264)" fill="#F0F2F5"/>
</g>
<path d="M1362.27 62.3036C1361.36 62.3516 1360.6 62.1138 1359.99 61.59C1359.39 61.0662 1359.06 60.357 1359.01 59.4622L1358 40.0968L1368.67 39.5374C1370.38 39.4481 1371.89 39.6895 1373.2 40.2616C1374.53 40.8326 1375.58 41.6856 1376.34 42.8205C1377.13 43.9542 1377.56 45.2881 1377.64 46.822L1377.97 53.0854C1378.11 55.8336 1377.51 57.9588 1376.16 59.461C1374.8 60.9419 1372.74 61.7549 1369.97 61.9L1362.27 62.3036ZM1369.64 58.0081C1371 57.9366 1372.02 57.4883 1372.68 56.6632C1373.34 55.8381 1373.63 54.6586 1373.55 53.1247L1373.24 47.2448C1373.18 46.0305 1372.73 45.0818 1371.91 44.3988C1371.08 43.6944 1370.03 43.3758 1368.75 43.4428L1362.61 43.7643L1363.38 58.3363L1369.64 58.0081ZM1387.69 61.2276C1386.35 61.2979 1385.15 61.1155 1384.08 60.6802C1383.03 60.2225 1382.19 59.5613 1381.57 58.6967C1380.95 57.8108 1380.6 56.7819 1380.54 55.6102L1380.33 51.4879C1380.26 50.2309 1380.49 49.108 1381.02 48.1192C1381.54 47.1304 1382.3 46.3429 1383.29 45.7567C1384.31 45.1694 1385.49 44.8405 1386.83 44.7702L1389.39 44.6362C1391.43 44.529 1393.1 45.0183 1394.4 46.1039C1395.7 47.1896 1396.39 48.6911 1396.49 50.6085L1396.67 53.9958L1384.85 54.6155L1384.89 55.3824C1384.93 56.0855 1385.18 56.6383 1385.65 57.0409C1386.12 57.4436 1386.74 57.6248 1387.5 57.5846L1390 57.454C1390.74 57.4149 1391.33 57.2238 1391.76 56.8808C1392.21 56.5154 1392.42 56.0664 1392.4 55.5338L1396.68 55.3094C1396.73 56.3746 1396.5 57.3377 1395.96 58.1987C1395.43 59.0597 1394.66 59.7412 1393.64 60.2433C1392.64 60.7443 1391.47 61.03 1390.12 61.1003L1387.69 61.2276ZM1392.23 51.0885L1392.21 50.8329C1392.17 50.002 1391.91 49.3533 1391.44 48.8868C1390.96 48.3989 1390.35 48.1745 1389.61 48.2136L1387.02 48.3493C1386.25 48.3895 1385.65 48.6881 1385.21 49.2453C1384.77 49.8025 1384.57 50.5178 1384.62 51.3913L1384.62 51.4871L1392.23 51.0885ZM1405.63 60.2879C1403.69 60.3895 1402.11 59.9597 1400.88 58.9985C1399.65 58.0373 1399 56.7258 1398.91 55.0641L1403.19 54.8397C1403.22 55.4149 1403.44 55.8735 1403.84 56.2156C1404.27 56.5353 1404.8 56.6784 1405.44 56.6449L1408.31 56.4941C1409.59 56.4271 1410.21 56.0421 1410.17 55.3391L1410.14 54.7958C1410.13 54.5828 1410.02 54.3966 1409.8 54.2374C1409.57 54.0568 1409.28 53.944 1408.91 53.8991L1403.33 53.2302C1402.02 53.0852 1400.97 52.6813 1400.16 52.0185C1399.38 51.3332 1398.96 50.5113 1398.91 49.5526L1398.86 48.498C1398.78 47.1346 1399.28 46.0403 1400.35 45.2153C1401.44 44.3892 1402.98 43.9237 1404.99 43.8187L1407.48 43.6881C1409.27 43.5943 1410.73 43.9983 1411.87 44.9C1413.03 45.7793 1413.65 46.9966 1413.73 48.5518L1409.44 48.7762C1409.42 48.3075 1409.24 47.9431 1408.91 47.6829C1408.59 47.4216 1408.18 47.3043 1407.67 47.3311L1405.24 47.4584C1403.86 47.5309 1403.18 47.8868 1403.22 48.5259L1403.24 49.0372C1403.25 49.2716 1403.35 49.4695 1403.53 49.631C1403.73 49.7701 1404 49.8626 1404.35 49.9087L1410.22 50.6584C1411.44 50.8078 1412.45 51.2145 1413.23 51.8785C1414.01 52.5211 1414.42 53.2792 1414.47 54.1526L1414.53 55.3031C1414.6 56.6878 1414.08 57.8151 1412.98 58.685C1411.89 59.5537 1410.4 60.0378 1408.5 60.1371L1405.63 60.2879ZM1419.33 41.8174C1418.5 41.8609 1417.81 41.6618 1417.28 41.2199C1416.76 40.7556 1416.48 40.1293 1416.44 39.341C1416.4 38.5528 1416.61 37.9115 1417.08 37.4171C1417.56 36.9003 1418.22 36.6201 1419.05 36.5766C1419.88 36.5331 1420.56 36.7434 1421.07 37.2078C1421.61 37.6496 1421.9 38.2647 1421.94 39.053C1421.98 39.8412 1421.76 40.4937 1421.27 41.0105C1420.81 41.5049 1420.16 41.7739 1419.33 41.8174ZM1417.23 43.4332L1421.58 43.2055L1422.42 59.1516L1418.07 59.3793L1417.23 43.4332ZM1433.24 65.0892C1431.54 65.1785 1430.09 64.7628 1428.91 63.842C1427.73 62.9425 1427.04 61.7078 1426.83 60.138L1431.11 59.9136C1431.18 60.38 1431.39 60.7428 1431.74 61.0019C1432.1 61.2823 1432.53 61.4091 1433.05 61.3823L1435.92 61.2316C1436.58 61.197 1437.1 60.8921 1437.48 60.317C1437.87 59.762 1438.05 59.0478 1438.01 58.1744L1437.93 56.6724C1437.52 57.1635 1437.02 57.5636 1436.42 57.873C1435.84 58.1812 1435.27 58.3498 1434.72 58.3788L1432.51 58.4944C1430.57 58.596 1428.98 58.1028 1427.72 57.0149C1426.49 55.9259 1425.83 54.444 1425.73 52.5693L1425.56 49.3098C1425.49 48.0102 1425.71 46.8559 1426.21 45.8469C1426.71 44.8166 1427.45 44.0089 1428.42 43.4238C1429.39 42.8174 1430.53 42.4802 1431.83 42.4121L1433.68 42.3149C1434.41 42.277 1435.12 42.4106 1435.82 42.7157C1436.54 43.0197 1437.13 43.4375 1437.58 43.9691L1437.5 42.3713L1441.52 42.1603L1442.35 57.9466C1442.42 59.2675 1442.2 60.443 1441.7 61.4734C1441.22 62.5026 1440.5 63.3204 1439.52 63.9268C1438.55 64.5331 1437.42 64.8704 1436.12 64.9385L1433.24 65.0892ZM1434.81 54.6888C1435.62 54.6464 1436.28 54.2804 1436.8 53.591C1437.32 52.8802 1437.59 51.9793 1437.62 50.8884L1437.51 48.6834C1437.38 47.8357 1437.05 47.169 1436.54 46.6834C1436.02 46.1978 1435.39 45.9745 1434.64 46.0136L1432.41 46.1308C1431.62 46.1722 1430.99 46.4933 1430.53 47.0941C1430.08 47.695 1429.87 48.4642 1429.92 49.4016L1430.06 52.022C1430.1 52.8954 1430.36 53.5867 1430.84 54.0959C1431.31 54.605 1431.9 54.8412 1432.61 54.8044L1434.81 54.6888ZM1445.24 41.9653L1449.27 41.7542L1449.37 43.6716C1449.81 42.9866 1450.39 42.4328 1451.11 42.0103C1451.84 41.5664 1452.57 41.325 1453.32 41.2859L1455.23 41.1854C1456.94 41.0961 1458.33 41.5572 1459.41 42.5688C1460.51 43.5793 1461.1 44.9581 1461.19 46.705L1461.74 57.0907L1457.39 57.3185L1456.86 47.0925C1456.82 46.4321 1456.61 45.909 1456.23 45.5232C1455.87 45.1363 1455.41 44.9574 1454.86 44.9864L1452.94 45.0869C1452.19 45.1259 1451.54 45.4381 1450.97 46.0232C1450.42 46.586 1450.08 47.3091 1449.93 48.1926L1450.43 57.6836L1446.08 57.9114L1445.24 41.9653Z" fill="#1E1E1E"/>
</g>
<defs>
<linearGradient id="paint0_linear_585_120" x1="-7.27373e-06" y1="86.3096" x2="1440" y2="86.3096" gradientUnits="userSpaceOnUse">
<stop offset="0.140625" stop-color="#B16CEA"/>
<stop offset="0.447917" stop-color="#FF5E69"/>
<stop offset="0.71875" stop-color="#FF8A56"/>
<stop offset="1" stop-color="#FFA84B"/>
</linearGradient>
<linearGradient id="paint1_linear_585_120" x1="-1.31836e-07" y1="14.4551" x2="26.1" y2="14.4551" gradientUnits="userSpaceOnUse">
<stop offset="0.140625" stop-color="#B16CEA"/>
<stop offset="0.447917" stop-color="#FF5E69"/>
<stop offset="0.71875" stop-color="#FF8A56"/>
<stop offset="1" stop-color="#FFA84B"/>
</linearGradient>
<linearGradient id="paint2_linear_585_120" x1="-1.31836e-07" y1="14.4551" x2="26.1" y2="14.4551" gradientUnits="userSpaceOnUse">
<stop offset="0.140625" stop-color="#B16CEA"/>
<stop offset="0.447917" stop-color="#FF5E69"/>
<stop offset="0.71875" stop-color="#FF8A56"/>
<stop offset="1" stop-color="#FFA84B"/>
</linearGradient>
<linearGradient id="paint3_linear_585_120" x1="-1.31836e-07" y1="14.4551" x2="26.1" y2="14.4551" gradientUnits="userSpaceOnUse">
<stop offset="0.140625" stop-color="#B16CEA"/>
<stop offset="0.447917" stop-color="#FF5E69"/>
<stop offset="0.71875" stop-color="#FF8A56"/>
<stop offset="1" stop-color="#FFA84B"/>
</linearGradient>
<linearGradient id="paint4_linear_585_120" x1="-1.31836e-07" y1="14.4551" x2="26.1" y2="14.4551" gradientUnits="userSpaceOnUse">
<stop offset="0.140625" stop-color="#B16CEA"/>
<stop offset="0.447917" stop-color="#FF5E69"/>
<stop offset="0.71875" stop-color="#FF8A56"/>
<stop offset="1" stop-color="#FFA84B"/>
</linearGradient>
<linearGradient id="paint5_linear_585_120" x1="-1.31836e-07" y1="14.4551" x2="26.1" y2="14.4551" gradientUnits="userSpaceOnUse">
<stop offset="0.140625" stop-color="#B16CEA"/>
<stop offset="0.447917" stop-color="#FF5E69"/>
<stop offset="0.71875" stop-color="#FF8A56"/>
<stop offset="1" stop-color="#FFA84B"/>
</linearGradient>
<linearGradient id="paint6_linear_585_120" x1="-1.31836e-07" y1="14.4551" x2="26.1" y2="14.4551" gradientUnits="userSpaceOnUse">
<stop offset="0.140625" stop-color="#B16CEA"/>
<stop offset="0.447917" stop-color="#FF5E69"/>
<stop offset="0.71875" stop-color="#FF8A56"/>
<stop offset="1" stop-color="#FFA84B"/>
</linearGradient>
<linearGradient id="paint7_linear_585_120" x1="-1.31836e-07" y1="14.4551" x2="26.1" y2="14.4551" gradientUnits="userSpaceOnUse">
<stop offset="0.140625" stop-color="#B16CEA"/>
<stop offset="0.447917" stop-color="#FF5E69"/>
<stop offset="0.71875" stop-color="#FF8A56"/>
<stop offset="1" stop-color="#FFA84B"/>
</linearGradient>
<clipPath id="clip0_585_120">
<rect width="1440" height="179" fill="white"/>
</clipPath>
<clipPath id="clip1_585_120">
<rect width="26.1" height="29" fill="white" transform="translate(69.8691 103.5) rotate(-3)"/>
</clipPath>
<clipPath id="clip2_585_120">
<rect width="26.1" height="29" fill="white" transform="translate(260.707 93.498) rotate(-3)"/>
</clipPath>
<clipPath id="clip3_585_120">
<rect width="26.1" height="29" fill="white" transform="translate(468.521 82.6069) rotate(-3)"/>
</clipPath>
<clipPath id="clip4_585_120">
<rect width="26.1" height="29" fill="white" transform="translate(685.324 71.2446) rotate(-3)"/>
</clipPath>
<clipPath id="clip5_585_120">
<rect width="26.1" height="29" fill="white" transform="translate(876.162 61.2432) rotate(-3)"/>
</clipPath>
<clipPath id="clip6_585_120">
<rect width="26.1" height="29" fill="white" transform="translate(1083.98 50.3521) rotate(-3)"/>
</clipPath>
<clipPath id="clip7_585_120">
<rect width="26.1" height="29" fill="white" transform="translate(1300.78 38.9902) rotate(-3)"/>
</clipPath>
</defs>
</svg>
